<svg width="507" height="382" viewBox="0 0 507 382" fill="none" xmlns="http://www.w3.org/2000/svg">
<path d="M240.914 373.727L22.27 244.547C15.3114 240.645 9.34146 234.221 16.1226 230.026L235.565 103.571C238.86 101.531 243.854 100.2 247.201 102.139L476.707 235.348C483.665 239.39 484.92 250.68 477.974 254.722L269.737 373.461C265.37 376.006 260.415 377.369 255.361 377.416C250.306 377.463 245.327 376.191 240.914 373.727Z" fill="#231F20"/>
<path d="M423.903 219.319L204.524 346.231C202.296 347.516 199.769 348.192 197.198 348.192C194.626 348.192 192.099 347.516 189.871 346.231L31.6875 250.097L251.244 123.388L423.903 219.319Z" fill="#F2F2F2"/>
<path d="M271.384 261.387C266.745 250.3 260.319 240.1 254.058 229.887C242.914 211.593 230.775 193.924 217.693 176.961L63.375 268.711C76.2148 276.858 152.924 325.337 166.195 332.737L275.2 271.194C273.995 267.913 272.741 264.631 271.384 261.387Z" fill="url(#paint0_linear_43_30)"/>
<path d="M430.823 121.196V91.7108C430.823 89.9699 430.367 88.2594 429.5 86.7498C428.632 85.2402 427.384 83.9843 425.88 83.1072L300.714 10.1101C299.203 9.22898 297.487 8.76119 295.737 8.75375C293.988 8.74631 292.268 9.19948 290.749 10.0677C289.231 10.9359 287.967 12.1885 287.087 13.6995C286.206 15.2106 285.739 16.9268 285.733 18.6756V74.9471V104.445C285.733 106.191 286.192 107.905 287.064 109.418C287.936 110.93 289.19 112.186 290.701 113.061L415.867 185.64C417.381 186.52 419.101 186.986 420.853 186.989C422.605 186.993 424.326 186.535 425.845 185.661C427.363 184.787 428.623 183.528 429.5 182.012C430.376 180.496 430.837 178.775 430.836 177.024V121.272L430.823 121.196Z" fill="#FF8103"/>
<path d="M241.066 187.009L269.027 204.292L269.382 211.527L239.887 192.064" fill="#E27623"/>
<path d="M240.698 175.237L225.754 217.482L227.858 218.901C228.449 218.642 229.021 218.342 229.57 218.002C230.241 217.558 248.227 173.806 248.227 173.806" fill="#E27623"/>
<path d="M268.849 168.75L275.238 194.763L270.991 245.599L269.078 246.676L266.669 244.927L268.304 194.244L262.715 168.319" fill="#E27623"/>
<path d="M237.022 163.466C237.022 163.466 235.755 169.041 237.453 172.336C239.152 175.63 244.868 168.167 244.868 168.167" fill="#FFB469"/>
<path d="M266.213 134.589L263.627 155.129L268.837 158.296L271.372 136.274" fill="#CA6B00"/>
<path d="M299.105 152.126L300.79 180.242L301.602 221.474L299.143 222.715L296.912 221.081L294.491 180.445L292.957 151.695" fill="#E27623"/>
<path d="M295.188 155.344C296.684 155.914 300.106 153.747 301.196 152.278C307.141 144.232 306.393 132.688 297.115 126.695C293.008 124.034 288.762 121.386 284.681 118.662C281.055 116.242 277.177 114.125 273.691 111.528C273.239 111.166 272.751 110.852 272.234 110.59C271.253 110.251 270.194 110.212 269.191 110.478C268.189 110.745 267.288 111.304 266.606 112.085" fill="#FFB469"/>
<path d="M295.606 155.014C298.141 155.103 299.916 151.796 300.816 149.832C303.351 144.447 304.441 133.968 298.357 130.382C298.24 130.321 298.141 130.23 298.07 130.119C297.999 130.008 297.958 129.88 297.951 129.749L286.341 121.931L277.367 115.887C275.795 114.835 274.325 113.644 272.753 112.58C271.182 111.515 269.648 110.299 267.785 111.313C265.921 112.326 265.25 114.582 264.844 116.647C263.695 121.405 263.604 126.358 264.578 131.155C265.493 134.229 267.54 136.842 270.307 138.466L278.647 144.105L294.111 154.508C294.356 154.69 294.624 154.84 294.909 154.951C295.137 155.006 295.372 155.027 295.606 155.014Z" fill="#FCBD4C"/>
<path d="M295.822 177.442L296.291 177.759C297.603 178.525 298.76 179.53 299.7 180.724C301.931 183.955 299.32 187.287 296.747 189.277C289.789 194.636 279.534 198.716 270.801 195.942C263.247 193.343 256.132 189.614 249.698 184.88C244.374 181.155 237.707 176.644 236.731 169.675C236.575 168.119 236.787 166.549 237.348 165.09C237.909 163.631 238.805 162.324 239.963 161.274C255.034 146.069 273.59 162.617 286.861 171.487L295.822 177.442Z" fill="#FFB469"/>
<path d="M300.613 178.418C300.889 180.388 300.846 182.391 300.486 184.348C299.422 186.454 297.923 188.311 296.088 189.796C294.377 190.987 295.987 181.94 295.987 181.94" fill="#FFB469"/>
<path d="M296.088 173.565L296.557 173.882C297.869 174.647 299.026 175.653 299.967 176.847C302.197 180.078 299.586 183.41 297.013 185.399C290.055 190.759 279.801 194.839 271.068 192.064C263.53 189.458 256.432 185.724 250.014 180.99C244.691 177.265 238.024 172.754 237.048 165.785C236.892 164.229 237.103 162.659 237.665 161.2C238.226 159.741 239.122 158.434 240.28 157.384C255.351 142.179 273.907 158.727 287.177 167.597L296.088 173.565Z" fill="#FCBD4C"/>
<path d="M263.006 120.043C263.006 120.043 258.646 141.584 257.391 145.803C256.136 150.022 241.966 155.598 244.716 158.588C247.467 161.578 256.859 165.329 256.859 165.329C256.859 165.329 269.242 152.113 270.624 148.54" fill="#5E331F"/>
<path d="M223.777 230.394C225.537 229.209 227.43 228.235 229.418 227.492C231.458 226.77 237.606 220.523 238.087 219.89C238.569 219.256 239.748 216.152 240.787 216.013C241.826 215.873 244.044 217.28 244.044 217.28C244.044 217.28 247.479 214.201 250.179 215.442C250.179 215.442 252.714 216.988 252.093 224.312C252.175 224.373 252.251 224.44 252.321 224.515C252.389 225.675 252.389 226.839 252.321 227.999C251.211 229.631 249.634 230.89 247.796 231.61C245.464 232.637 240.305 236.425 237.073 237.034C233.236 237.494 229.344 237.118 225.666 235.931C225.021 235.657 224.464 235.211 224.057 234.641C223.65 234.07 223.408 233.399 223.359 232.7C223.21 231.906 223.359 231.085 223.777 230.394Z" fill="#E05E00"/>
<path d="M243.36 216.912C243.36 216.912 247.353 214.061 250.141 215.404C252.93 216.747 252.106 223.323 252.106 223.323C252.106 223.323 251.814 227.125 247.124 228.975C242.435 230.825 243.043 232.852 236.984 234.284C230.926 235.716 224.677 233.802 223.65 231.914C222.624 230.026 226.452 228.721 226.73 228.506C227.009 228.29 232.574 225.376 233.904 223.83C235.235 222.284 237.58 219.598 238.442 218.255C239.304 216.912 239.71 215.721 241.117 215.898C241.945 216.016 242.724 216.368 243.36 216.912Z" fill="#FFC019"/>
<path d="M230.913 225.908C230.918 225.964 230.934 226.018 230.96 226.068C230.987 226.117 231.023 226.16 231.067 226.195C231.111 226.229 231.162 226.254 231.216 226.268C231.27 226.282 231.327 226.285 231.382 226.276H231.496C232.749 226.976 233.948 227.768 235.083 228.645C235.151 228.687 235.23 228.709 235.309 228.708C235.389 228.707 235.467 228.683 235.534 228.639C235.6 228.595 235.653 228.533 235.686 228.46C235.718 228.387 235.729 228.306 235.717 228.227C235.514 227.56 235.324 226.888 235.147 226.212C236.087 226.326 237.013 226.538 237.91 226.846C238.009 226.888 238.121 226.889 238.221 226.848C238.32 226.808 238.4 226.73 238.442 226.63C238.484 226.531 238.485 226.42 238.445 226.32C238.404 226.22 238.326 226.14 238.227 226.098C238.198 226.051 238.177 226 238.163 225.946C238.102 225.756 238.03 225.57 237.948 225.389L237.491 224.274C238.233 224.444 238.95 224.713 239.621 225.072C240.065 225.313 240.508 224.692 240.128 224.426C239.965 223.704 239.744 222.996 239.469 222.31C240.477 222.306 241.481 222.451 242.447 222.741C242.954 222.893 243.221 222.12 242.714 221.968C241.542 221.619 240.323 221.461 239.101 221.499C238.871 221.02 238.613 220.554 238.328 220.105C238.049 219.662 237.314 220.016 237.593 220.472C237.872 220.929 238.011 221.169 238.201 221.537C237.517 221.537 236.832 221.651 236.148 221.727C236.077 221.709 236.003 221.709 235.932 221.727C235.867 221.742 235.807 221.777 235.762 221.826C235.717 221.876 235.688 221.939 235.679 222.006C235.648 222.092 235.648 222.186 235.679 222.272L236.123 223.235C235.532 223.181 234.938 223.181 234.348 223.235C234.152 223.452 233.945 223.66 233.727 223.856C233.845 224.346 233.964 224.831 234.082 225.313C233.281 225.288 232.48 225.33 231.686 225.439C231.395 225.566 231.154 225.744 230.913 225.908ZM237.086 223.374L236.68 222.487C237.314 222.424 237.948 222.36 238.569 222.335C238.8 222.87 238.995 223.421 239.152 223.982C238.47 223.681 237.755 223.46 237.023 223.323L237.086 223.374ZM234.918 225.389C234.809 224.966 234.703 224.544 234.602 224.122C235.238 224.053 235.879 224.053 236.516 224.122L236.858 224.933C236.959 225.161 237.035 225.49 237.137 225.794C236.41 225.584 235.669 225.431 234.918 225.338V225.389ZM232.878 226.162C233.342 226.137 233.808 226.137 234.272 226.162L234.576 227.277C234.031 226.833 233.461 226.478 232.878 226.111V226.162Z" fill="#E05E00"/>
<path d="M276.822 149.186C276.822 149.186 282.957 167.229 280.777 170.194C278.596 173.159 258.671 187.199 256.986 188.846C255.3 190.493 253.183 216.443 253.183 216.443C247.657 219.396 241.053 215.886 241.053 215.886C241.053 215.886 237.555 184.132 241.408 177.873C245.261 171.613 265.998 148.819 266.897 147.247" fill="#B76748"/>
<path d="M274.629 151.91C273.729 153.481 252.993 176.226 249.14 182.536C245.287 188.846 248.785 220.548 248.785 220.548C248.785 220.548 255.389 224.058 260.915 221.106C260.915 221.106 263.019 195.181 264.717 193.509C266.416 191.836 286.632 178.038 288.508 174.87C294.288 165.088 289.776 151.619 289.776 151.619" fill="#B76748"/>
<path d="M272.056 102C272.172 102 272.283 102.046 272.365 102.128C272.447 102.21 272.493 102.321 272.493 102.437C272.493 102.553 272.447 102.664 272.365 102.746C272.283 102.828 272.172 102.874 272.056 102.874C271.94 102.874 271.829 102.828 271.747 102.746C271.665 102.664 271.619 102.553 271.619 102.437C271.619 102.321 271.665 102.21 271.747 102.128C271.829 102.046 271.94 102 272.056 102Z" fill="#231F20"/>
<path d="M292.387 156.421C293.408 152.696 294.037 148.873 294.263 145.017C294.75 139.625 294.872 134.207 294.63 128.798C294.627 126.462 293.954 124.176 292.691 122.21C289.37 117.901 279.674 112.326 274.211 111.465C261.536 109.475 261.333 127.937 261.536 135.679C261.65 139.087 263.158 148.438 267.531 152.012C271.904 155.585 285.682 160.235 288.61 160.438C290.257 160.476 291.525 158.474 292.387 156.421Z" fill="#5E331F"/>
<path d="M280.815 101.265L281.727 101.328C281.872 101.338 282.006 101.405 282.101 101.514C282.197 101.624 282.244 101.766 282.234 101.911C282.224 102.055 282.157 102.19 282.048 102.285C281.938 102.38 281.796 102.428 281.651 102.418L280.739 102.354C280.594 102.344 280.459 102.277 280.364 102.168C280.269 102.058 280.221 101.916 280.232 101.771C280.242 101.627 280.309 101.492 280.418 101.397C280.527 101.302 280.67 101.254 280.815 101.265Z" fill="#231F20"/>
<path d="M272.69 105.395C273.747 106.518 275.093 107.327 276.58 107.734C278.067 108.141 279.638 108.13 281.119 107.701C281.803 107.511 282.006 108.588 281.334 108.779C279.664 109.243 277.897 109.241 276.228 108.771C274.559 108.302 273.05 107.384 271.866 106.118C271.372 105.598 272.208 104.838 272.69 105.395Z" fill="#231F20"/>
<path d="M269.28 98.0841C269.28 98.0841 269.28 111.617 272.703 112.491C276.125 113.365 279.927 111.895 281.233 110.261C282.538 108.626 285.644 100.314 284.528 98.6796C283.413 97.0451 271.359 95.7526 269.28 98.0841Z" fill="#FFBE8D"/>
<path d="M282.133 108.411V115.088C282.133 115.088 279.965 116.622 274.173 114.252L273.603 110.35" fill="#FFBE8D"/>
<path d="M267.442 93.1679C268.22 92.9227 269.043 92.8535 269.851 92.9652C270.197 91.8257 270.915 90.8352 271.891 90.1523C272.763 89.605 273.769 89.3094 274.798 89.2982C275.827 89.287 276.839 89.5607 277.722 90.0889C278.034 90.2831 278.32 90.5174 278.571 90.7858C279.117 90.3438 279.751 90.0226 280.431 89.8435C281.11 89.6644 281.82 89.6315 282.513 89.7468C283.306 89.8758 284.045 90.2298 284.643 90.7666C285.241 91.3035 285.672 92.0006 285.885 92.7751C285.986 93.1894 286.012 93.6188 285.961 94.0422C286.768 94.1468 287.525 94.4952 288.13 95.0408C288.734 95.5864 289.158 96.3033 289.345 97.0959C289.496 97.6882 289.509 98.3074 289.381 98.9053C289.254 99.5031 288.99 100.063 288.61 100.542C289.057 101.056 289.345 101.69 289.438 102.365C289.53 103.041 289.423 103.728 289.129 104.344C288.833 104.976 288.371 105.516 287.794 105.909C287.216 106.301 286.544 106.531 285.847 106.574C286.03 107.229 286.03 107.921 285.847 108.576C285.023 110.122 283.058 110.654 281.233 110.945C281.233 110.096 281.233 109.247 281.233 108.411C281.242 108.335 281.242 108.259 281.233 108.183C281.873 107.688 282.43 107.094 282.881 106.422C283.514 105.535 284.009 104.242 283.121 103.343C282.904 103.142 282.645 102.992 282.362 102.906C282.079 102.819 281.78 102.798 281.487 102.843C281.195 102.888 280.916 102.998 280.672 103.166C280.429 103.334 280.226 103.554 280.079 103.812C279.918 103.377 279.728 102.953 279.509 102.544C278.799 100.327 276.568 99.9342 274.439 99.7822C271.118 101.252 266.352 102.139 265.326 97.9829C264.99 97.0623 265.022 96.0475 265.417 95.1504C265.811 94.2532 266.537 93.543 267.442 93.1679Z" fill="#BC4824"/>
<path d="M294.719 136.705C294.719 136.705 295.898 151.91 291.348 161.35C286.797 170.79 276.416 174.122 276.416 174.122C276.416 174.122 268.621 171.195 269.052 169.789C269.483 168.382 280.371 158.056 280.371 158.056L281.233 143.712" fill="#5E331F"/>
<path d="M283.362 114.974L281.955 112.744C280.311 113.696 278.558 114.445 276.733 114.974C275.263 115.114 274.021 112.922 274.021 112.922C274.021 112.922 272.31 114.974 272.512 115.279C272.715 115.583 272.69 121.449 272.905 121.196C273.121 120.942 275.998 118.776 275.998 118.776L275.707 122.184L284.389 115.519L283.362 114.974Z" fill="#B76748"/>
<path d="M151.061 211.033V219.446H156.232L151.061 211.033Z" fill="#231F20"/>
<path d="M294.808 250.16V242.976L290.257 248.703L294.808 250.16Z" fill="#231F20"/>
<path d="M222.877 198.767L285.187 234.373C285.187 234.373 305.227 247.728 287.418 263.3C269.61 278.873 245.122 278.873 229.544 272.17C213.967 265.467 158.311 232.117 158.311 232.117C158.311 232.117 137.017 216.126 167.183 198.742C175.596 193.697 185.223 191.035 195.034 191.039C204.844 191.044 214.469 193.715 222.877 198.767Z" fill="#231F20"/>
<path d="M222.877 191.912L285.187 227.518C285.187 227.518 305.227 240.873 287.418 256.445C269.61 272.018 245.122 272.018 229.544 265.315C213.967 258.612 158.311 225.262 158.311 225.262C158.311 225.262 137.017 209.271 167.183 191.887C175.596 186.842 185.223 184.18 195.034 184.184C204.844 184.189 214.469 186.86 222.877 191.912Z" fill="#231F20"/>
<path d="M151.061 163.783C151.948 165.81 151.061 219.446 151.061 219.446L294.352 246.435V202.898" fill="#231F20"/>
<path d="M151.061 163.783V172.196H156.232L151.061 163.783Z" fill="#231F20"/>
<path d="M294.808 202.911V195.726L290.257 201.454L294.808 202.911Z" fill="#231F20"/>
<path d="M222.877 151.518L285.187 187.123C285.187 187.123 305.227 200.478 287.418 216.051C269.61 231.623 245.122 231.623 229.544 224.92C213.967 218.217 158.311 184.867 158.311 184.867C158.311 184.867 137.017 168.877 167.183 151.492C175.596 146.448 185.223 143.785 195.034 143.79C204.844 143.794 214.469 146.465 222.877 151.518Z" fill="#231F20"/>
<path d="M222.877 144.663L285.187 180.268C285.187 180.268 305.227 193.623 287.418 209.196C269.61 224.768 245.122 224.768 229.544 218.065C213.967 211.362 158.311 178.012 158.311 178.012C158.311 178.012 137.017 162.022 167.183 144.637C175.596 139.593 185.223 136.93 195.034 136.935C204.844 136.939 214.469 139.61 222.877 144.663Z" fill="#FF8103"/>
<path d="M199.935 179.482L232.51 161.413L251.016 172.095L219.518 190.506L199.935 179.482Z" fill="#231F20"/>
<path d="M128.905 158.36L135.255 155.281V152.088L128.043 150.01" fill="#665265"/>
<path d="M135.039 283.561H138.411L138.411 150.162H135.039L135.039 283.561Z" fill="#42210B"/>
<path d="M135.496 220.143L162.709 274.628C163.533 276.275 165.992 274.831 165.168 273.184L137.955 218.699C137.131 217.051 134.672 218.496 135.496 220.143Z" fill="#42210B"/>
<path d="M135.356 219.801L158.349 316.442C158.767 318.229 161.518 317.468 161.099 315.682L138.157 219.041C137.739 217.254 134.989 218.014 135.407 219.801H135.356Z" fill="#42210B"/>
<path d="M135.496 218.965L98.865 279.696C98.7137 280.019 98.6885 280.387 98.7942 280.728C98.8999 281.068 99.1289 281.357 99.4365 281.538C99.7441 281.719 100.108 281.778 100.457 281.705C100.806 281.631 101.115 281.43 101.324 281.141L137.98 220.46C138.131 220.137 138.157 219.769 138.051 219.428C137.945 219.088 137.716 218.799 137.409 218.618C137.101 218.438 136.737 218.378 136.388 218.452C136.039 218.525 135.73 218.726 135.521 219.015L135.496 218.965Z" fill="#42210B"/>
<path d="M128.905 152.037V158.372L118.537 152.797V137.377" fill="#42210B"/>
<path d="M165.304 131.452C167.774 130.991 169.276 127.93 168.657 124.614C168.039 121.298 165.535 118.984 163.064 119.444C160.594 119.904 159.092 122.966 159.711 126.282C160.329 129.597 162.833 131.912 165.304 131.452Z" fill="#42210B"/>
<path d="M165.307 131.447C164.721 131.491 164.132 131.491 163.546 131.447C163.11 131.431 162.681 131.329 162.285 131.147C161.889 130.964 161.533 130.704 161.239 130.382C160.858 130.091 160.516 129.229 160.136 128.938L155.7 131.472L154.635 125.77L159.477 124.832L161.429 120.246" fill="#42210B"/>
<path d="M133.354 155.281L118.537 147.285V127.405L133.43 135.793L133.354 155.281Z" fill="#42210B"/>
<path d="M133.354 128.444L158.095 121.196V142.065L133.354 155.281V128.444Z" fill="#5E3A26"/>
<path d="M118.537 127.405L144.571 112.96L158.095 121.196L133.43 135.793L118.537 127.405Z" fill="#5E3A26"/>
<path d="M126.965 134.26V156.054L119.69 152.05V130.471L126.965 134.26Z" fill="#5E3A26"/>
<path d="M164.257 131.866C166.728 131.405 168.229 128.344 167.611 125.028C166.993 121.712 164.489 119.397 162.018 119.858C159.548 120.318 158.046 123.379 158.664 126.695C159.283 130.011 161.787 132.326 164.257 131.866Z" fill="#42210B"/>
<path d="M136.763 208.676C139.57 208.676 141.846 208.001 141.846 207.168C141.846 206.335 139.57 205.66 136.763 205.66C133.956 205.66 131.681 206.335 131.681 207.168C131.681 208.001 133.956 208.676 136.763 208.676Z" fill="#42210B"/>
<path d="M136.763 220.27C139.57 220.27 141.846 219.595 141.846 218.762C141.846 217.929 139.57 217.254 136.763 217.254C133.956 217.254 131.681 217.929 131.681 218.762C131.681 219.595 133.956 220.27 136.763 220.27Z" fill="#42210B"/>
<path d="M131.681 207.168V218.762H141.846V207.168" fill="#42210B"/>
<path d="M321.844 54.661C321.844 54.8004 321.844 54.9398 321.92 55.0665L320.487 55.2565C320.563 54.8131 320.487 54.2555 320.703 54.2429C320.918 54.2302 321.451 54.4963 321.844 54.661Z" fill="white"/>
<path d="M323.466 55.6619C323.306 56.0046 323.262 56.3899 323.339 56.76C323.417 57.1301 323.613 57.465 323.897 57.7146C323.897 57.2077 323.897 56.8276 323.897 56.4475C324.233 56.3553 324.588 56.3553 324.924 56.4475C325.203 56.5868 325.241 56.9796 325.279 57.8539C325.643 57.8239 326.008 57.8986 326.331 58.0693C327.446 58.6395 328.092 60.2107 329.132 60.9837V61.0977C328.967 62.4661 330.399 63.2011 330.957 64.4048L330.336 64.7596L329.398 63.4925H329.068C329.132 63.8614 329.221 64.2255 329.335 64.5822C329.542 64.9789 329.683 65.4069 329.753 65.8493L328.701 64.899L329.005 65.8113L328.828 65.938C328.42 65.3054 327.971 64.7001 327.484 64.126C326.937 63.6304 326.357 63.1732 325.748 62.7576C326.075 62.9393 326.43 63.0636 326.8 63.125C327.015 63.125 327.116 62.7576 327.281 62.5675L328.764 63.5685C327.776 61.9973 327.066 60.8569 326.305 59.7672C326.123 59.507 325.885 59.2905 325.608 59.1337C324.619 58.6522 323.631 58.2341 322.642 57.7906C322.642 57.6892 322.642 57.5752 322.642 57.4611L322.946 57.3978C322.756 57.0177 322.351 56.4475 322.427 56.3461C322.678 55.9984 323.047 55.7549 323.466 55.6619Z" fill="white"/>
<path d="M321.856 52.6716C322.372 53.2819 322.94 53.8458 323.555 54.3569C323.729 54.4792 323.911 54.5893 324.1 54.6863C324.607 54.9524 325.152 55.1298 325.671 55.3579C325.671 55.5226 325.671 55.6746 325.671 55.8267C324.848 55.4972 324.024 55.2058 323.212 54.7877H323.124C322.325 54.3569 321.565 53.8247 321.856 52.6716Z" fill="white"/>
<path d="M329.144 50.9611C329.918 51.3665 330.691 51.7974 331.464 52.2282C331.866 52.5089 332.189 52.8885 332.402 53.3305L330.488 52.735L331.185 53.4319L327.015 53.2292L327.75 53.9387L325.456 54.0274L326.521 54.9017V55.0538L323.048 53.2545L323.796 52.7857L324.417 53.5586L324.632 53.4572L323.884 52.1141L325.405 52.8997L324.138 50.9737L324.277 50.7964L325.545 52.0634L325.012 51.1385L326.432 51.4933L324.987 50.7583C324.556 50.5429 324.125 50.3022 323.72 50.0488C323.473 49.875 323.284 49.6327 323.174 49.3519C323.174 49.2252 323.403 48.9337 323.542 48.9591C324.86 49.3013 326.155 49.7245 327.421 50.2262C328.042 50.3529 328.587 50.6823 329.144 50.9611Z" fill="white"/>
<path d="M345.812 72.5142C346.253 72.7975 346.621 73.1792 346.889 73.6293C346.598 73.5047 346.274 73.4737 345.964 73.5406C345.66 73.6139 345.34 73.5872 345.052 73.4645C344.703 73.2429 344.443 72.9068 344.316 72.5142C344.799 72.339 345.329 72.339 345.812 72.5142Z" fill="white"/>
<path d="M331.553 73.946L332.731 75.8467L330.919 74.5796L331.553 73.946Z" fill="white"/>
<path d="M341.971 57.0176C343.239 57.6638 344.443 58.5508 345.673 59.3111C345.673 59.4378 345.673 59.5772 345.673 59.7039L342.39 58.5255C342.39 58.6395 342.39 58.7662 342.39 58.8929L344.19 59.5645L344.101 60.2234L345.939 60.2994L345.001 61.2244C346.006 61.1326 347.017 61.312 347.929 61.7439C348.283 61.9295 348.614 62.1548 348.917 62.4154L346.573 62.2507L345.432 63.7586L346.015 64.1133L345.292 64.7976L346.281 65.9126H345.66L345.305 67.015L343.949 66.4828C343.949 66.6222 343.949 66.7616 343.949 66.9136L344.811 67.4205L344.215 67.2937L344.861 68.7509L344.646 68.8143L343.784 67.9019L343.264 68.3328L344.342 69.2704C343.543 69.1564 343.074 69.1184 342.491 69.0043C341.731 68.8396 341.008 68.5862 340.412 69.131C340.108 69.4098 339.272 68.979 338.701 68.9916C338.554 69.012 338.413 69.0645 338.288 69.1456C338.163 69.2266 338.057 69.3341 337.979 69.4605C337.548 70.0307 337.193 70.7276 336.8 71.2851C336.15 70.8362 335.599 70.2579 335.182 69.5863C334.766 68.9148 334.492 68.1645 334.379 67.3824C334.233 66.8191 334.152 66.2409 334.138 65.6592C334.138 65.4438 334.265 65.1143 334.379 65.1397C335.279 65.3931 335.381 64.7976 335.14 64.0627C334.832 63.3575 334.459 62.6829 334.024 62.048C334.037 61.1683 333.807 60.3021 333.36 59.5444C332.913 58.7867 332.266 58.1667 331.489 57.7525L331.109 57.5878C330.79 57.4776 330.477 57.3507 330.171 57.2077C329.765 56.9923 329.753 56.8149 329.715 56.2574L330.691 56.6755L330.767 56.4601L328.853 55.0283V54.7495C329.436 54.8889 330.019 55.079 330.577 55.1677C330.843 55.1677 331.185 55.1677 331.299 55.0156C331.413 54.8636 331.172 54.4581 331.058 54.002L332.871 54.3314C333.238 53.7992 334.138 54.3314 334.899 54.5341C335.076 54.6228 335.266 55.0917 335.419 55.3324L337.079 55.5858L338.346 56.8529C338.346 56.4221 338.106 55.8266 338.245 55.7505C338.384 55.6745 338.917 55.7505 339.259 55.9279C340.032 56.2954 340.831 56.4474 341.553 56.7896L341.971 57.0176Z" fill="white"/>
<path d="M391.062 130.433C391.269 130.582 391.443 130.771 391.576 130.988C391.709 131.206 391.797 131.448 391.835 131.7C392.195 132.593 392.654 133.443 393.204 134.234C393.571 133.487 393.838 132.967 394.18 132.27C394.497 133.259 394.699 134.095 395.016 134.906C395.337 135.743 395.718 136.557 396.157 137.339C396.546 137.844 396.791 138.445 396.867 139.079C396.943 139.712 396.846 140.354 396.588 140.937C396.225 141.659 395.764 142.329 395.219 142.926C395.037 143.064 394.814 143.139 394.585 143.139C394.357 143.139 394.134 143.064 393.952 142.926C393.641 142.761 393.359 142.547 393.115 142.293C392.624 141.879 392.23 141.363 391.961 140.781C391.692 140.198 391.553 139.564 391.556 138.922L390.808 139.607C390.659 139.07 390.389 138.574 390.017 138.159C389.646 137.744 389.183 137.42 388.666 137.212L388.185 136.971C386.689 136.198 385.573 136.806 384.281 136.173C384.179 134.652 384.078 133.183 383.964 131.523C384.334 131.365 384.728 131.275 385.13 131.257C386.234 131.34 387.328 130.985 388.172 130.268C388.246 130.221 388.33 130.189 388.417 130.173C388.504 130.158 388.593 130.16 388.679 130.18C388.832 130.378 389.021 130.546 389.237 130.674C389.731 130.927 390.035 130.496 390.504 130.357C390.597 130.331 390.695 130.324 390.791 130.337C390.887 130.35 390.979 130.383 391.062 130.433Z" fill="white"/>
<path d="M391.518 126.302L392.126 127.569C392.567 127.623 392.996 127.752 393.394 127.949C394.573 128.558 395.447 129.875 396.36 132.384C396.126 131.925 395.832 131.499 395.485 131.117L395.308 131.003C394.916 130.863 394.513 130.752 394.104 130.674C393.888 130.37 393.102 129.977 393.255 129.128C393.255 129.039 393.115 128.836 393.014 128.71C392.393 127.949 391.746 127.215 391.151 126.467L391.518 126.302Z" fill="white"/>
<path d="M386.588 121.196C387.031 121.817 386.917 122.349 385.713 124.414C383.989 123.363 383.888 123.223 383.736 121.88L386.588 121.196Z" fill="white"/>
<path d="M363.532 116.622L363.823 116.825C363.202 117.952 362.556 119.08 361.947 120.195C361.947 120.296 361.618 120.322 361.466 120.195C361.303 120.043 361.203 119.835 361.187 119.612C361.288 118.789 361.415 117.978 361.58 117.179C361.605 117.111 361.65 117.05 361.708 117.005C361.766 116.961 361.836 116.933 361.909 116.926C362.416 116.825 362.974 116.723 363.532 116.622Z" fill="white"/>
<path d="M375.434 80.269C375.251 80.3432 375.059 80.3902 374.863 80.4084L371.961 80.1043C370.87 80.0029 370.338 80.9279 370.693 82.347L369.426 80.9532C371.466 79.192 372.911 79.0272 375.434 80.269Z" fill="white"/>
<path d="M349.5 79.1791L350.223 79.8C349.703 80.7376 350.844 81.8147 350.958 82.7903C350.957 83.0161 350.871 83.2332 350.717 83.3985C350.311 83.1634 349.937 82.8781 349.602 82.5496C349.5 82.4482 349.475 81.916 349.602 81.8907C350.223 81.7006 349.919 81.3078 349.602 80.725C349.397 80.2173 349.261 79.6847 349.196 79.1411L349.5 79.1791Z" fill="white"/>
<path d="M379.528 117.939C381.137 119.422 382.532 122.425 381.986 123.439L379.528 117.939Z" fill="white"/>
<path d="M358.36 68.9031L359.273 70.0181C359.083 70.2209 358.905 70.4363 358.702 70.6263C358.5 70.8164 358.246 70.9938 357.993 71.2092L357.486 70.3602L358.221 70.5123C358.145 70.1322 358.297 69.5873 357.942 69.4099C357.749 69.3461 357.54 69.3461 357.346 69.4099C357.122 69.0852 356.919 68.7467 356.738 68.3962L356.966 68.2695L358.233 69.4479L358.36 68.9031Z" fill="white"/>
<path d="M396.398 112.314C396.453 112.484 396.472 112.665 396.452 112.843C396.433 113.021 396.375 113.193 396.284 113.348C396.193 113.502 396.07 113.636 395.924 113.739C395.777 113.843 395.611 113.914 395.435 113.948C395.118 114.055 394.775 114.055 394.459 113.948C394.297 113.855 394.169 113.713 394.091 113.543L396.398 112.314Z" fill="white"/>
<path d="M403.065 148.705L403.319 149.275C402.368 149.275 401.975 150.542 400.784 149.984L400.619 149.642L403.065 148.705Z" fill="white"/>
<path d="M348.562 80.1675L348.841 80.5349C348.626 81.0038 348.841 81.9541 347.574 81.2952L347.346 81.1685L348.562 80.1675Z" fill="white"/>
<path d="M412.863 106.84C413.28 107.22 413.739 107.552 414.232 107.828L413.192 108.386L411.507 106.46H409.795C409.948 106.865 410.138 107.397 410.34 107.879L409.225 107.727C408.057 107.693 406.903 107.457 405.815 107.03C405.042 106.688 404.345 106.852 404.548 108.056C404.571 108.136 404.575 108.22 404.559 108.301C404.544 108.382 404.51 108.459 404.459 108.525C403.8 109.019 403.103 109.475 402.279 110.045C402.457 108.094 402.875 106.65 404.687 106.51C405.144 106.51 405.473 106.105 405.866 105.877L405.727 105.598C405.549 105.598 405.321 105.433 405.22 105.497C405.118 105.56 404.776 105.851 404.485 105.699C404.266 105.565 404.073 105.394 403.914 105.192C403.812 105.069 403.687 104.966 403.547 104.888C402.989 104.597 402.457 105.04 401.988 105.281C401.784 105.359 401.558 105.359 401.354 105.281C401.058 104.908 400.687 104.601 400.264 104.382C399.961 104.232 399.647 104.105 399.326 104.001C399.013 103.902 398.708 103.779 398.413 103.634L398.16 103.495C397.564 103.19 396.804 103.723 396.17 103.925C395.802 104.121 395.461 104.364 395.156 104.648C395.632 104.951 396.082 105.294 396.499 105.674C396.775 105.96 396.944 106.331 396.981 106.726C396.921 107.242 396.736 107.735 396.443 108.163C396.149 108.592 395.755 108.942 395.295 109.184C394.839 109.425 394.484 109.881 393.736 109.501L393.445 109.323C393.14 109.158 392.672 109.767 392.177 109.843C391.404 109.957 391.657 110.489 391.962 111.11C392.38 111.984 391.886 112.035 391.341 112.047C391.341 110.603 391.074 109.691 390.39 109.336C390.25 109.266 390.101 109.219 389.946 109.197L390.06 108.36L388.134 108.715L389.401 109.982C387.918 110.096 389.401 111.933 389.059 112.808C389.059 112.909 389.135 113.251 389.059 113.251C388.045 113.391 387.792 114.822 386.423 114.354C385.726 114.113 385.003 113.948 384.306 113.771C383.609 113.593 383.165 114.1 383.444 114.924C383.531 115.16 383.637 115.389 383.761 115.608C384.509 117.014 384.268 117.585 382.836 117.661L381.517 115.646C380.694 116.026 380.884 116.913 381.099 117.724C380.896 117.395 380.554 117.027 380.567 116.786C380.567 115.861 380.757 115 380.896 113.973L379.984 113.733L379.084 110.375C378.068 110.703 377.03 110.962 375.979 111.148C374.711 111.325 375.281 113.353 373.912 113.809C373.57 111.731 373.266 109.881 372.949 108.043C372.883 108.061 372.813 108.061 372.746 108.043C372.594 107.967 372.531 107.752 372.353 107.423C371.943 106.608 371.389 105.874 370.718 105.256C369.552 104.318 368.259 103.71 367.081 102.81C366.675 102.506 366.447 101.746 366.092 101.239C365.866 100.975 365.616 100.733 365.344 100.517C365.253 100.786 365.214 101.07 365.23 101.353C365.349 101.858 365.506 102.354 365.699 102.836C365.812 103.222 366.065 103.552 366.409 103.761C366.608 103.849 366.824 103.895 367.043 103.895C367.261 103.895 367.477 103.849 367.676 103.761L367.778 104.052C368.006 104.534 368.526 105.319 368.424 105.446C367.955 105.954 367.339 106.304 366.662 106.447C365.526 106.513 364.386 106.492 363.253 106.384L360.87 98.629L360.046 97.9321C360.018 98.0529 360.018 98.1786 360.046 98.2995C360.781 100.834 361.047 103.368 362.454 105.826C362.644 106.168 362.606 106.637 362.835 106.941C362.976 107.11 363.154 107.244 363.354 107.334L363.785 107.537C364.112 107.668 364.446 107.778 364.786 107.866C364.757 108.44 364.551 108.992 364.198 109.445C363.844 109.898 363.359 110.232 362.809 110.4C360.959 110.578 360.274 111.731 360.274 113.859C360.274 114.873 360.426 116.115 359.007 116.14C358.107 116.14 357.967 117.116 358.157 117.952C357.529 118.635 356.847 119.266 356.117 119.84C355.628 120.151 355.039 120.264 354.469 120.157C353.969 120.088 353.479 119.956 353.011 119.764C352.416 119.46 352.403 118.928 352.302 117.433C352.189 115.983 351.973 114.543 351.655 113.124C351.414 112.162 351.546 111.144 352.023 110.274C352.216 109.729 352.256 109.141 352.137 108.576C352.023 107.777 351.681 106.928 351.541 106.13C351.492 105.654 351.492 105.174 351.541 104.698C351.541 104.344 351.655 103.824 351.541 103.634C350.882 102.859 350.128 102.169 349.298 101.581L349.044 101.442C348.322 101.141 347.581 100.887 346.826 100.682L346.42 100.504C344.392 99.4526 342.871 96.4116 343.581 94.5869C343.581 94.4602 343.721 94.3462 343.695 94.2321C343.252 92.0654 344.633 91.698 345.825 91.1658C346.377 90.8777 346.878 90.501 347.308 90.0507C347.444 89.8515 347.653 89.7134 347.89 89.6661C348.127 89.6187 348.373 89.6658 348.575 89.7973C348.7 89.862 348.819 89.9384 348.93 90.0254C349.114 90.1296 349.31 90.2105 349.513 90.2662C350.502 90.5322 351.478 90.7096 352.454 91.0644L352.809 91.2165C353.468 91.5586 353.531 92.0021 353.1 92.6863L355.901 95.664C356.036 95.501 356.223 95.3886 356.43 95.3449C356.637 95.3012 356.853 95.3288 357.042 95.4232C357.409 95.6537 357.717 95.966 357.942 96.3355C358.138 96.5946 358.389 96.8068 358.677 96.9564C359.298 97.2732 359.945 97.4759 360.464 97.704C360.984 97.9321 361.732 97.0451 361.668 95.816C361.149 95.5753 360.591 95.3852 360.071 95.1191L359.602 94.8404C359.282 94.6523 359.038 94.3576 358.913 94.0079C358.788 93.6581 358.79 93.2756 358.918 92.927C359.467 93.0033 360.01 93.122 360.54 93.2818C360.779 93.3674 361.012 93.469 361.237 93.5859C361.554 93.7507 361.871 93.9407 362.188 94.1181C362.505 94.2955 362.758 94.5616 363.05 94.7136C363.347 94.8087 363.666 94.8087 363.963 94.7136C363.847 94.4238 363.716 94.1404 363.57 93.8647C363.316 93.4719 363.037 93.1044 362.733 92.6736L363.392 91.888L363.24 91.5586L361.58 91.85C361.334 91.4706 361.05 91.1181 360.731 90.7983C360.288 90.8464 359.881 91.0652 359.597 91.4083C359.313 91.7514 359.174 92.1917 359.209 92.6356C359.019 92.5771 358.836 92.4963 358.664 92.3949C358.119 92.1161 357.562 91.812 357.397 92.927L354.9 88.0234C354.254 88.5556 354.532 89.4172 355.876 91.1151C355.61 90.9884 355.394 90.9377 355.268 90.8744C354.697 90.1014 354.317 89.4045 353.861 88.7456C353.629 88.4203 353.331 88.1481 352.986 87.9474C352.608 87.7798 352.212 87.6524 351.807 87.5673C351.681 87.5673 351.49 87.4532 351.427 87.5673C350.881 87.9402 350.372 88.3645 349.906 88.8343C349.678 89.0313 349.392 89.1468 349.091 89.1629C348.79 89.179 348.493 89.0946 348.246 88.923C348.059 88.8252 347.885 88.7062 347.726 88.5683C346.737 87.732 347.041 87.3012 347.396 86.6676C347.522 86.3604 347.599 86.0355 347.625 85.7046C347.776 85.7023 347.925 85.7418 348.056 85.8187C348.255 85.9309 348.446 86.0579 348.626 86.1988C348.799 86.3303 348.981 86.4489 349.171 86.5536C349.242 86.6088 349.326 86.6458 349.415 86.6615C349.504 86.6772 349.595 86.671 349.681 86.6436C349.767 86.6162 349.845 86.5683 349.909 86.5041C349.972 86.4398 350.019 86.3612 350.045 86.2748C350.236 85.882 349.703 84.8937 349.551 84.3742L353.962 83.6266L354.152 82.1694L354.444 82.3342C354.436 82.5344 354.393 82.7316 354.317 82.917C354.025 83.3985 354.317 83.8167 354.773 84.0574C355.851 84.5516 356.865 84.9064 357.904 85.3245C357.993 84.8303 358.081 84.4502 358.183 83.9687C358.367 84.1273 358.567 84.2674 358.779 84.3868C359.209 84.6149 359.387 84.3869 359.045 83.4999L360.933 84.0827C360.933 83.9434 360.933 83.804 360.933 83.6646L360.198 83.2971L359.704 83.0184C359.311 82.7776 358.652 82.4482 358.576 82.1948C358.424 81.6499 358.348 80.9277 359.007 80.9277C359.399 80.8145 359.775 80.6482 360.122 80.4335C360 80.0799 359.769 79.7739 359.463 79.5592C359.358 79.4711 359.229 79.4177 359.093 79.4063C358.957 79.395 358.82 79.4263 358.702 79.4959C358.412 79.74 358.087 79.9406 357.739 80.0914C356.877 80.3575 356.649 80.9404 357.334 82.0807L355.559 83.7533C355.293 82.5622 355.115 81.7893 354.925 80.953L353.658 81.1938C353.037 79.724 353.303 78.9764 354.292 78.7483C354.851 78.5863 355.378 78.3291 355.851 77.988C356.56 77.5572 357.118 76.835 357.904 76.6196C358.724 76.5602 359.547 76.6857 360.312 76.987C360.866 77.1782 361.404 77.4112 361.922 77.6839L361.694 78.2034C362.328 78.7103 362.961 79.1918 363.57 79.762C364.178 80.3322 364.66 81.0291 365.332 81.7766C365.131 81.8681 364.911 81.9101 364.69 81.8991C364.47 81.888 364.255 81.8243 364.064 81.7133C363.453 81.2721 362.873 80.7894 362.328 80.2688C362.476 80.9389 362.667 81.5991 362.898 82.2455C363.052 82.6025 363.302 82.9097 363.62 83.1324C364.077 83.2718 364.698 83.2718 364.786 82.993C364.989 82.4229 365.294 82.3722 365.686 82.5749C365.88 82.6842 366.062 82.8114 366.231 82.955C366.333 82.5116 366.434 82.0807 366.523 81.6879C366.669 82.0588 366.738 82.4554 366.726 82.8537C367.125 82.878 367.523 82.9246 367.917 82.993C368.438 83.1171 368.95 83.2737 369.451 83.4619C370.224 83.766 370.997 84.1334 371.77 84.4122C371.897 84.4122 371.986 84.0827 372.163 83.7786L374.61 85.9454C374.61 85.3625 374.305 84.5516 374.534 84.2221C374.762 83.8927 375.535 83.728 376.194 83.4619L375.586 88.0741C376.067 87.7193 376.498 87.4152 377.018 87.0097L377.715 88.3655C377.715 87.6179 377.804 86.8703 377.043 86.4776C376.91 86.412 376.769 86.361 376.625 86.3255C376.609 86.2333 376.609 86.139 376.625 86.0467C376.714 85.6159 376.802 85.1851 376.891 84.7796L378.057 86.1101L377.918 85.7553C378.197 85.6413 378.45 85.4005 378.754 85.4639C378.907 85.5452 379.044 85.6524 379.16 85.7806C379.29 85.9157 379.44 86.0309 379.604 86.1228C379.467 85.6883 379.297 85.2647 379.097 84.8557C379.506 85.0198 379.93 85.1428 380.364 85.2231C380.732 85.2231 381.049 85.0331 381.403 85.0457C382.078 85.0225 382.754 85.0692 383.419 85.1851C383.99 85.3731 384.541 85.6149 385.066 85.9074L384.192 86.4776L384.395 86.8197C384.94 86.8197 385.434 86.8197 385.662 86.1354C385.802 85.6919 386.207 85.4259 386.562 85.0077C387.006 85.9327 387.247 86.5789 387.83 86.9084L388.159 87.0351C388.717 87.3919 389.228 87.8176 389.68 88.3022C389.68 88.4289 389.68 88.5556 389.68 88.6823L386.6 88.961L387.158 89.2651C387.844 89.3158 388.512 89.5055 389.123 89.8227C389.925 90.2766 390.684 90.8025 391.391 91.3939C391.633 91.5857 391.892 91.7553 392.164 91.9007C392.333 91.9893 392.512 92.0574 392.697 92.1034C392.939 92.1537 393.173 92.2346 393.394 92.3442C393.654 92.4867 393.876 92.6882 394.043 92.9326C394.211 93.1769 394.318 93.4571 394.357 93.7507C394.471 94.1637 394.738 94.5174 395.105 94.739L396.018 95.2331L396.474 95.4486L396.918 95.6893L397.222 95.8667C397.627 96.0694 398.008 96.1455 398.249 95.5373C398.337 95.3219 398.527 95.2965 398.768 95.4232C399.262 95.7508 399.646 96.2186 399.871 96.7663C400.392 97.0249 400.896 97.3169 401.379 97.6406C402.14 98.2235 402.9 98.9077 403.61 99.5159C404.028 99.8961 404.358 100.441 404.776 100.783C405.349 101.243 405.95 101.666 406.576 102.05C407.121 102.418 407.704 102.76 408.312 103.14L408.376 102.633L409.25 103.064L409.783 103.368C410.201 103.595 410.577 103.891 410.898 104.242C411.608 105.066 412.178 106.016 412.863 106.84ZM367.714 97.3492H368.209L366.941 95.1951C367.114 95.2183 367.288 95.2183 367.461 95.1951C367.652 95.0552 367.834 94.9028 368.006 94.739C367.771 94.4668 367.507 94.2205 367.22 94.0041H367.144C365.877 93.5479 365.395 94.2575 365.877 95.7146C366.007 96.2973 366.079 96.8916 366.092 97.4886L365.75 97.6786L367.461 98.9457C367.537 98.4769 367.626 98.0334 367.74 97.4506M384.788 100.973C386.182 101.493 386.968 101.074 386.879 99.858L384.788 100.973Z" fill="white"/>
<path d="M324.962 87.4787L327.307 89.0753C328.13 90.0129 328.967 91.0899 329.918 91.9769C330.868 92.8639 331.35 94.2197 330.818 94.9799C330.98 94.9941 331.141 95.0195 331.299 95.0559C332.115 96.2048 333.192 97.143 334.443 97.7929C335.111 98.2923 335.615 98.9809 335.888 99.7695C336.014 100.175 335.507 100.783 335.089 100.948C334.468 101.214 334.316 101.721 334.138 102.405C333.898 103.469 333.669 104.597 332.11 104.242C331.401 104.078 330.589 104.078 330.323 105.193C330.146 106.004 329.119 106.358 328.359 106.701C328.042 106.84 327.408 106.434 326.964 106.295C326.964 106.586 327.129 107.334 326.876 107.562C326.622 107.79 325.925 107.562 325.241 107.562C325.241 107.562 325.139 107.866 325.038 108.208L324.227 107.727C324.205 107.869 324.171 108.009 324.125 108.145C323.922 108.512 323.808 109.057 323.466 109.197C322.87 109.463 323.035 109.843 323.466 110.388L321.539 112.174L320.64 110.755L320.931 108.512C321.337 108.512 321.73 107.625 321.692 106.726C321.673 106.087 321.759 105.449 321.945 104.838C322.503 102.709 323.213 100.631 323.669 98.5024C323.732 98.1983 323.339 97.5901 323.124 97.1213C322.782 96.3864 322.363 95.6641 322.046 94.9292C321.73 94.1943 321.641 93.6621 321.4 93.0286C320.627 91.0393 320.69 90.1396 321.983 89.316C322.68 88.8725 322.642 88.1756 322.401 87.2L322.515 87.276C322.635 87.3198 322.763 87.3335 322.889 87.3158C323.015 87.2982 323.135 87.2497 323.238 87.1746C323.344 87.0953 323.468 87.0443 323.599 87.0265C323.73 87.0088 323.863 87.0249 323.986 87.0733C324.291 87.284 324.521 87.5855 324.645 87.9349C324.772 87.7575 324.911 87.5674 324.962 87.4787Z" fill="white"/>
<path d="M321.007 86.3508L321.362 86.769C321.233 86.6394 321.114 86.4995 321.007 86.3508Z" fill="white"/>
<path d="M322.275 79.8L322.376 80.1161L322.275 79.8Z" fill="white"/>
<path d="M311.982 49.3011C312.55 49.6611 313.073 50.0864 313.541 50.5682C313.154 50.652 312.776 50.7752 312.413 50.9357C312.267 51.0553 312.091 51.1337 311.903 51.1626C311.716 51.1916 311.525 51.1701 311.349 51.1004C310.994 50.8574 310.734 50.4993 310.614 50.0867C311.095 49.2758 311.387 48.9844 311.982 49.3011Z" fill="white"/>
<path d="M316.381 50.0994L317.344 51.1637L314.885 50.5935L316.381 50.0994Z" fill="white"/>
<path d="M316.495 52.2029L317.927 55.4213C317.927 55.4973 317.8 55.7381 317.737 55.8648C316.78 55.5279 315.841 55.143 314.923 54.7117L314.733 54.6104C314.122 54.1514 313.564 53.6242 313.073 53.0392L314.619 53.622C314.619 53.5333 314.619 53.432 314.619 53.3306L313.073 52.3423L313.732 52.2156L312.794 51.6073L312.705 51.3159L314.137 51.0625V51.5313L316.343 53.3306L316.495 52.2029Z" fill="white"/>
<path d="M321.945 48.6042L324.176 51.5439C323.593 51.4552 323.162 51.9874 322.591 51.696C322.361 51.5616 322.166 51.375 322.021 51.1511C321.894 50.961 321.945 50.6569 321.907 50.2641L320.956 49.732L321.945 48.6042Z" fill="white"/>
<path d="M319.575 53.5838C319.676 54.0527 319.765 54.4835 319.854 54.9776L318.928 55.1297C318.928 54.4708 318.928 53.9513 318.928 53.3811L319.575 53.5838Z" fill="white"/>
<path d="M322.959 60.9585L324.226 62.2256L322.959 62.4663C322.934 61.8961 322.934 61.516 322.959 60.9585Z" fill="white"/>
<path d="M330.932 71.7793L331.946 72.7549C331.705 72.8943 331.502 73.1604 331.223 73.1351C330.694 73.1137 330.174 72.9934 329.689 72.7803L329.55 72.7043L329.297 72.5649C328.867 72.3153 328.36 72.2355 327.874 72.341C327.388 72.4465 326.96 72.7297 326.673 73.1351L328.409 73.0337C328.498 73.5786 328.587 74.022 328.688 74.5796C328.207 74.5796 327.712 74.4655 327.231 74.4402C327.002 74.4402 326.66 74.3642 326.597 74.5162C326.191 75.3778 325.329 75.3145 324.467 75.4032C324.214 75.4032 324.303 76.3408 324.214 76.987C322.946 77.1011 321.552 77.3925 322.262 79.8C322.049 78.7421 321.442 77.8046 320.563 77.1771C320.142 76.9736 319.669 76.9029 319.207 76.9744C318.958 76.5966 318.635 76.2733 318.257 76.024C317.902 75.834 317.572 75.948 317.141 76.3662C316.772 76.7695 316.524 77.2694 316.428 77.8077C316.331 78.346 316.39 78.9007 316.596 79.4072C316.736 80.0012 317.099 80.5186 317.61 80.8517C317.836 80.9603 318.09 80.9919 318.335 80.9415C318.581 80.8911 318.802 80.7616 318.966 80.5729C319.08 80.4715 319.309 80.5729 319.765 80.4462C319.473 81.2825 319.271 81.8653 319.042 82.5369L320.678 83.2971C320.678 84.3108 320.285 85.2485 321.045 86.3128C320.637 85.923 320.294 85.4694 320.031 84.9697C319.254 83.3813 318.09 82.0133 316.647 80.991C315.348 80.1352 314.41 78.8318 314.011 77.3291C313.695 76.3551 313.269 75.42 312.743 74.5415C312.35 73.6673 311.97 72.8183 311.476 71.6906C311.336 72.1974 311.273 72.4889 311.209 72.7043C310.538 71.1838 309.802 69.6252 309.156 68.054C308.982 67.6066 308.909 67.1265 308.941 66.6476C308.941 65.4438 309.118 64.2781 309.219 63.0744L309.625 64.0627H309.866C309.726 63.6319 309.701 63.049 309.422 62.7956C308.64 61.8588 308.031 60.7905 307.622 59.6405C307.374 59.1986 307.095 58.7751 306.786 58.3735C307.065 58.2594 306.786 56.7896 306.139 56.2321C305.493 55.6746 304.808 54.965 304.111 54.3948C303.414 53.8246 302.755 53.3811 302.058 52.8616L300.93 53.2797L300.714 52.9376L301.348 52.5702C301.272 52.4994 301.187 52.4397 301.095 52.3928C300.893 52.281 300.66 52.2378 300.431 52.2698C300.203 52.3018 299.991 52.4072 299.827 52.5702C299.505 52.9419 299.113 53.2474 298.674 53.4698C298.927 52.6209 298.801 52.2027 298.205 51.8479C298.014 51.7518 297.815 51.6754 297.609 51.6199C297.241 51.4298 296.849 50.7076 296.342 50.0233C296.164 49.4658 296.506 49.187 297.229 49.2377C297.748 49.2377 298.217 49.2377 297.888 48.3001C297.519 48.2419 297.158 48.1442 296.811 48.0086C296.593 47.8812 296.405 47.7093 296.258 47.504C296.112 47.2987 296.011 47.0648 295.961 46.8176L298.496 47.8566L296.95 45.5251C298.217 45.6392 299.219 45.6645 300.322 45.8673C300.41 45.8847 300.495 45.9145 300.575 45.956C300.941 46.1685 301.26 46.453 301.513 46.7922C301.946 47.3761 302.499 47.8601 303.135 48.2114C303.374 48.3368 303.631 48.4264 303.896 48.4775C304.068 48.5066 304.235 48.5622 304.39 48.6422C304.669 48.7816 304.897 48.9843 305.176 49.149C305.455 49.3138 306.038 50.074 306.444 50.3148C306.552 50.3758 306.674 50.4079 306.798 50.4079C306.923 50.4079 307.045 50.3758 307.153 50.3148C307.268 50.5336 307.444 50.7142 307.66 50.8343C308.104 51.0623 308.56 50.8343 309.004 51.037C309.059 51.063 309.12 51.0765 309.181 51.0765C309.243 51.0765 309.303 51.063 309.359 51.037C309.728 51.3928 310.117 51.727 310.525 52.038C311.387 52.6335 312.287 53.153 313.149 53.7612C313.288 53.8626 313.313 54.2808 313.478 54.4708C313.716 54.7858 314.008 55.0561 314.34 55.2691C314.632 55.4085 314.898 55.4718 315.139 55.5985C315.379 55.7252 315.734 56.0673 315.798 56.8656C316.026 56.08 316.305 55.8773 316.748 56.1054C316.985 56.2452 317.202 56.4156 317.395 56.6122C317.608 56.8049 317.847 56.9669 318.105 57.0937C318.535 57.3218 319.03 57.4992 319.549 57.7653L319.879 58.5255C320.107 58.3608 320.373 58.2974 320.437 58.0694C320.5 57.8413 320.64 57.2077 320.5 57.0557C319.6 56.1054 319.968 55.7886 320.754 55.5859L321.755 58.5128H322.351C322.427 59.0197 322.477 59.4378 322.579 60.2361L323.986 58.893L324.594 59.7546C324.189 59.97 324.734 61.1991 323.72 60.7683L323.441 60.6162L323.225 60.4895C322.972 60.3628 322.731 60.3248 322.655 60.7556L321.692 60.1981L322.553 61.4652L320.551 60.7809L320.982 61.4145C320.732 61.4835 320.486 61.5681 320.247 61.6679C319.157 62.2381 319.461 63.898 320.804 64.975C321.626 65.6837 322.405 66.4411 323.137 67.2431C323.276 67.3951 323.251 67.7373 323.327 68.0034C323.42 68.4364 323.552 68.8603 323.72 69.2704C323.833 69.4677 323.994 69.6333 324.189 69.7519C324.442 69.7519 324.581 69.5112 324.607 69.3085C324.638 68.9205 324.638 68.5307 324.607 68.1427C325.646 68.2314 325.874 67.5852 325.583 66.4322C325.51 65.7626 325.51 65.0871 325.583 64.4175L325.824 64.5315C327.37 65.3298 327.864 67.0023 328.65 68.4595L329.74 68.1807C330.082 69.3591 330.539 70.6262 330.932 71.7793ZM322.363 73.6673L324.81 73.5786L324.696 73.1731L323.01 73.0717L322.87 72.8183L323.669 72.3115L322.934 71.4625C322.671 71.2016 322.437 70.9127 322.237 70.6009C322.014 70.0311 321.637 69.535 321.147 69.1691C320.741 68.9537 320.297 69.1691 319.714 69.6379L320.196 69.904L320.462 70.0054C320.654 70.0508 320.84 70.1145 321.02 70.1954C321.337 70.3601 321.413 70.5882 321.02 71.0824C320.792 71.3738 320.868 71.982 320.792 72.5395C321.666 72.6409 321.197 71.0824 322.186 71.5892L322.325 71.6652C322.325 72.2861 322.325 72.8563 322.325 73.6546M310.538 55.2311L312.819 55.3578C312.492 54.944 312.098 54.5884 311.653 54.3061C311.133 54.04 310.766 54.3061 310.525 55.2184M312.642 58.7156H314.86V58.5128L313.073 57.7653L312.578 58.3735L312.705 58.7282" fill="white"/>
<path d="M381.137 117.8C381.492 118.573 382.405 119.371 381.72 120.106C381.442 119.799 381.243 119.428 381.141 119.026C381.04 118.624 381.038 118.203 381.137 117.8Z" fill="white"/>
<path d="M440.253 90.4562C440.267 89.3209 439.982 88.202 439.425 87.2121C438.869 86.2223 438.062 85.3964 437.085 84.8177L392.038 58.2087C391.667 57.9919 391.247 57.8758 390.817 57.8719C390.388 57.8681 389.965 57.9766 389.591 58.1867C389.217 58.3969 388.904 58.7013 388.684 59.0697C388.464 59.4381 388.344 59.8577 388.337 60.2868L388.21 70.6769C388.191 71.7969 388.47 72.9018 389.018 73.8789C389.566 74.8561 390.363 75.6706 391.328 76.2395L434.207 101.797C434.798 102.15 435.471 102.341 436.159 102.353C436.848 102.364 437.527 102.194 438.129 101.861C438.731 101.527 439.234 101.041 439.589 100.452C439.945 99.8624 440.139 99.1902 440.152 98.5023L440.253 90.4562Z" fill="#F15A24"/>
<path d="M394.612 72.9689C395.63 72.882 396.324 71.2627 396.16 69.3523C395.997 67.4418 395.04 65.9635 394.021 66.0504C393.003 66.1373 392.31 67.7565 392.473 69.667C392.636 71.5775 393.594 73.0558 394.612 72.9689Z" fill="white"/>
<path d="M405.245 71.5386L404.992 78.1149L408.059 79.8254L407.996 81.3586L403.166 78.685L403.483 70.563L405.245 71.5386Z" fill="white"/>
<path d="M413.433 76.0494L413.116 84.1841L411.367 83.2085L411.684 75.0864L413.433 76.0494Z" fill="white"/>
<path d="M423.345 81.5105L420.43 88.2008L418.351 87.0984L416.196 77.5952L418.11 78.6469L418.921 82.6129C419.137 83.7279 419.352 84.7796 419.492 85.8947C419.713 85.035 419.984 84.1888 420.303 83.3605L421.418 80.4208L423.345 81.5105Z" fill="white"/>
<path d="M431.241 85.8821L431.178 87.39L428.174 85.7301L428.098 87.4153L430.95 88.9865L430.887 90.4817L428.047 88.9105L427.971 90.8491L431.14 92.5977L431.089 94.1056L426.146 91.3813L426.476 83.2466L431.241 85.8821Z" fill="white"/>
<defs>
<linearGradient id="paint0_linear_43_30" x1="167.83" y1="271.625" x2="227.457" y2="205.185" gradientUnits="userSpaceOnUse">
<stop offset="0.01" stop-color="#F2F2F2"/>
<stop offset="1" stop-color="#6A6A6A"/>
</linearGradient>
</defs>
</svg>
