<svg width="560" height="367" viewBox="0 0 560 367" fill="none" xmlns="http://www.w3.org/2000/svg">
<g clip-path="url(#clip0_16_3)">
<path d="M277.121 62.3904C286.503 62.3904 294.109 54.7773 294.109 45.386C294.109 35.9947 286.503 28.3816 277.121 28.3816C267.738 28.3816 260.133 35.9947 260.133 45.386C260.133 54.7773 267.738 62.3904 277.121 62.3904Z" fill="#FD6584"/>
<path d="M315.142 37.3341C314.663 35.7617 313.735 34.3638 312.472 33.3126C311.209 32.2614 309.667 31.6028 308.035 31.4178C307.997 31.4146 307.959 31.4146 307.92 31.4178C307.875 31.4035 307.828 31.3928 307.781 31.386C302.092 30.6472 295.768 32.4431 291.512 36.3534C289.931 37.7821 288.668 39.5263 287.802 41.4737C287.013 40.3949 285.973 39.5249 284.773 38.939C283.572 38.3531 282.247 38.0689 280.912 38.1111C279.19 38.225 277.545 38.8677 276.202 39.9516C274.858 41.0354 273.881 42.5077 273.404 44.1676C273.352 44.3704 273.366 44.5847 273.445 44.7786C273.524 44.9726 273.664 45.1357 273.843 45.2438C274.355 45.6819 274.963 45.9919 275.618 46.1482C277.024 46.4475 278.443 46.7213 279.862 46.9697C282.636 47.4537 285.425 47.8464 288.229 48.1479C290.08 48.3453 291.936 48.5024 293.796 48.6192C297.639 48.8612 301.501 48.9185 305.35 48.7975C307.259 48.7338 309.091 48.6701 310.834 47.8295C312.105 47.2041 313.19 46.2581 313.984 45.0846C314.731 43.9559 315.222 42.677 315.422 41.338C315.622 39.9989 315.526 38.6322 315.142 37.3341Z" fill="#E6E6E6"/>
<path d="M280.193 62.1076C280.161 61.3951 280.041 60.6893 279.836 60.006C279.355 58.4337 278.426 57.0363 277.162 55.9853C275.898 54.9343 274.356 54.2755 272.723 54.0897C272.687 54.0865 272.651 54.0865 272.615 54.0897C272.567 54.076 272.518 54.0654 272.469 54.0578C269.321 53.6718 266.126 54.0005 263.122 55.0195C258.503 56.567 254.45 59.6876 252.497 64.1456C251.707 63.0661 250.666 62.1957 249.464 61.6097C248.263 61.0238 246.936 60.74 245.6 60.783C243.878 60.8969 242.233 61.5396 240.89 62.6235C239.546 63.7073 238.569 65.1796 238.092 66.8395C238.043 67.0423 238.059 67.2556 238.137 67.4489C238.216 67.6421 238.354 67.8055 238.531 67.9157C239.044 68.3526 239.652 68.6624 240.306 68.8201C241.719 69.1194 243.131 69.3932 244.557 69.6416C247.331 70.1256 250.117 70.5183 252.917 70.8198C258.604 71.4309 264.327 71.6479 270.045 71.4693C271.947 71.4056 273.786 71.342 275.529 70.5014C276.798 69.8758 277.881 68.9296 278.672 67.7565C279.787 66.0929 280.322 64.1069 280.193 62.1076Z" fill="#E6E6E6"/>
<path d="M501.448 268.44C501.692 280.035 500.093 291.594 496.712 302.686C496.594 303.089 496.452 303.491 496.31 303.894H426.605C427.602 298.983 429.184 294.209 431.317 289.675C437.118 277.351 446.589 266.805 455.941 256.33C468.821 241.897 481.393 227.583 483.382 208.813C488.488 216.604 492.562 225.024 495.505 233.863C491.903 235.199 488.597 237.228 485.774 239.835C484.992 240.57 484.164 241.637 484.566 242.656C484.945 243.509 485.987 243.793 486.91 243.983C489.136 244.409 491.361 244.836 493.587 245.239C495.339 245.594 497.115 245.926 498.89 246.258C500.451 253.553 501.308 260.981 501.448 268.44Z" fill="#F2F2F2"/>
<path d="M560 260.762C548.825 267.564 541.722 278.086 535.921 289.864C530.873 291.016 526.213 293.467 522.401 296.974C521.596 297.709 520.768 298.775 521.194 299.794C521.549 300.648 522.615 300.932 523.538 301.121C525.74 301.548 527.989 301.975 530.191 302.378C529.978 302.875 529.765 303.397 529.552 303.894H455.681C459.034 299.368 462.747 295.119 466.785 291.192C467.661 290.315 468.561 289.485 469.484 288.632C478.901 280.114 489.713 273.283 501.448 268.44C519.933 260.705 540.148 258.054 560 260.762Z" fill="#F2F2F2"/>
<path d="M467.992 303.894H402.219C401.859 298.622 401.891 293.331 402.313 288.063C404.941 255.524 422.628 224.526 449.311 205.756C445.902 217.914 447.654 230 451.206 242.134C450.708 242.3 450.211 242.443 449.761 242.632C446.159 243.968 442.853 245.997 440.03 248.604C439.249 249.339 438.42 250.405 438.823 251.424C439.178 252.278 440.243 252.562 441.167 252.752C443.392 253.178 445.618 253.605 447.82 254.008C449.596 254.363 451.371 254.695 453.147 255.05C453.976 255.193 454.804 255.358 455.633 255.524C455.751 255.809 455.823 256.07 455.941 256.33C460.108 267.824 464.654 279.413 466.785 291.192C467.312 294.147 467.676 297.13 467.874 300.126C467.945 301.382 467.992 302.638 467.992 303.894Z" fill="#F2F2F2"/>
<path d="M109.519 268.44C109.763 280.035 108.165 291.594 104.784 302.686C104.665 303.089 104.523 303.491 104.381 303.894H34.6768C35.6732 298.983 37.2552 294.209 39.3886 289.675C45.1893 277.351 54.66 266.805 64.0123 256.33C76.8924 241.897 89.4647 227.583 91.4536 208.813C96.559 216.604 100.634 225.024 103.576 233.863C99.9739 235.199 96.668 237.228 93.845 239.835C93.0636 240.57 92.2348 241.637 92.6374 242.656C93.0162 243.509 94.058 243.793 94.9814 243.983C97.207 244.409 99.4326 244.836 101.658 245.239C103.41 245.594 105.186 245.926 106.962 246.258C108.523 253.553 109.379 260.981 109.519 268.44Z" fill="#F2F2F2"/>
<path d="M168.071 260.762C156.896 267.564 149.793 278.086 143.992 289.864C138.944 291.016 134.284 293.467 130.473 296.974C129.668 297.709 128.839 298.775 129.265 299.794C129.62 300.648 130.686 300.932 131.609 301.121C133.811 301.548 136.06 301.975 138.262 302.378C138.049 302.875 137.836 303.397 137.623 303.894H63.7518C67.1052 299.368 70.8188 295.119 74.8562 291.192C75.7322 290.315 76.632 289.485 77.5554 288.632C86.9721 280.114 97.7848 273.283 109.519 268.44C128.004 260.705 148.219 258.054 168.071 260.762Z" fill="#F2F2F2"/>
<path d="M76.0638 303.894H10.2899C9.93069 298.622 9.96238 293.331 10.3847 288.063C13.0128 255.524 30.6992 224.526 57.3828 205.756C53.9734 217.914 55.7254 230 59.2769 242.134C58.7798 242.3 58.2826 242.443 57.8327 242.632C54.2306 243.968 50.9246 245.997 48.1016 248.604C47.3203 249.339 46.4916 250.405 46.8941 251.424C47.2491 252.278 48.3146 252.562 49.238 252.752C51.4636 253.178 53.6892 253.605 55.8912 254.008C57.6669 254.363 59.4427 254.695 61.2184 255.05C62.047 255.193 62.8758 255.358 63.7044 255.524C63.8228 255.809 63.8939 256.07 64.0123 256.33C68.1794 267.824 72.7253 279.413 74.8562 291.192C75.3837 294.147 75.7473 297.13 75.9454 300.126C76.0164 301.382 76.0638 302.638 76.0638 303.894Z" fill="#F2F2F2"/>
<path d="M320.93 276.254L379.7 281.476L380.33 281.533V30.5244C380.12 30.3779 379.91 30.2314 379.7 30.085C367.452 21.5096 354.202 14.4647 340.246 9.10706L337.243 50.5661L336.97 54.3617L333.998 95.4769L333.082 108.125L321.038 274.789L320.93 276.254Z" fill="#E6E6E6"/>
<path d="M175.592 25.8498C175.172 26.1173 174.752 26.3847 174.332 26.665V281.533L175.592 281.418L233.726 276.254L233.617 274.789L221.573 108.125L220.657 95.4768L217.686 54.3616L217.412 50.566L214.263 7.08813C200.681 11.8004 187.701 18.0977 175.592 25.8498Z" fill="#E6E6E6"/>
<path d="M174.332 26.665C173.486 27.2127 172.639 27.7731 171.806 28.3399V285.01C171.806 291.423 175.604 296.798 180.682 298.168C181.511 298.393 182.367 298.506 183.227 298.505H372.065C372.922 298.506 373.776 298.393 374.604 298.168C376.491 297.644 378.201 296.618 379.554 295.2C382.132 292.441 383.542 288.788 383.486 285.01V32.8043C382.442 32.0337 381.392 31.2695 380.33 30.5243C380.12 30.3779 379.91 30.2314 379.7 30.0849V285.01C379.701 285.836 379.603 286.66 379.407 287.462C378.51 291.251 375.552 294.028 372.065 294.028H183.227C179.015 294.028 175.592 289.984 175.592 285.01V25.8499C175.172 26.1173 174.752 26.3848 174.332 26.665Z" fill="#E6E6E6"/>
<path d="M381.593 50.5686H173.697V54.3636H381.593V50.5686Z" fill="#E6E6E6"/>
<path d="M317.92 2.15889C316.661 1.84683 315.401 1.55388 314.128 1.28003V104.329H317.92V2.15889Z" fill="#E6E6E6"/>
<path d="M241.163 0C239.897 0.235635 238.631 0.477641 237.371 0.73875V104.329H241.163V0Z" fill="#E6E6E6"/>
<path d="M132.938 291.863C132.937 294.041 133.354 296.198 134.166 298.219C134.477 299.002 134.85 299.76 135.279 300.486C135.833 301.432 136.477 302.324 137.2 303.148C138.799 304.971 140.768 306.432 142.975 307.432C145.183 308.433 147.578 308.95 150.002 308.95H398.972C403.498 308.95 407.838 307.15 411.038 303.947C414.238 300.744 416.036 296.399 416.036 291.869C416.036 287.339 414.238 282.995 411.038 279.792C407.838 276.588 403.498 274.789 398.972 274.789H150.002C145.479 274.793 141.142 276.593 137.943 279.794C134.744 282.995 132.944 287.335 132.938 291.863Z" fill="#E6E6E6"/>
<path d="M173.697 108.126L380.329 108.126V95.4761L173.697 95.4761V108.126Z" fill="#E6E6E6"/>
<path d="M285.86 98.6387H268.167C268.167 96.7934 268.899 95.0238 270.202 93.719C271.506 92.4142 273.274 91.6812 275.117 91.6812H278.909C279.822 91.6812 280.725 91.8611 281.569 92.2108C282.412 92.5604 283.178 93.0729 283.824 93.719C284.469 94.3651 284.981 95.132 285.331 95.9762C285.68 96.8203 285.86 97.725 285.86 98.6387H285.86Z" fill="#E6E6E6"/>
<path d="M-42 250C-36.4728 256.555 -30.4944 262.716 -24.1087 268.437H489.076C495.462 262.716 501.44 256.555 506.967 250H-42Z" fill="#3F3D56"/>
<path d="M252.393 239.966V305.281H298.108V239.966C298.108 239.496 297.959 239.038 297.68 238.66C297.402 238.282 297.01 238.003 296.561 237.864C296.35 237.794 296.129 237.76 295.906 237.762H254.601C254.311 237.762 254.025 237.818 253.757 237.929C253.489 238.039 253.246 238.201 253.041 238.406C252.836 238.611 252.673 238.854 252.562 239.121C252.451 239.389 252.393 239.676 252.393 239.966ZM270.234 262.408C270.246 261.121 270.765 259.89 271.679 258.984C272.593 258.078 273.827 257.57 275.114 257.57C276.4 257.57 277.634 258.078 278.548 258.984C279.462 259.89 279.981 261.121 279.994 262.408V269.987C279.987 271.278 279.47 272.514 278.555 273.425C277.641 274.335 276.404 274.847 275.114 274.847C273.824 274.847 272.586 274.335 271.672 273.425C270.757 272.514 270.24 271.278 270.234 269.987V262.408Z" fill="#2F2E41"/>
<path d="M252.253 303.192V309.491C252.254 309.817 252.384 310.13 252.614 310.361C252.844 310.592 253.155 310.724 253.481 310.726H297.02C297.346 310.725 297.658 310.594 297.888 310.362C298.118 310.131 298.248 309.817 298.248 309.491V303.192H252.253Z" fill="#3F3D56"/>
<path d="M180.478 141.559V260.816C180.479 262.336 181.083 263.793 182.157 264.868C183.23 265.942 184.686 266.547 186.204 266.548H362.763C364.281 266.547 365.737 265.942 366.811 264.868C367.884 263.793 368.488 262.336 368.489 260.816V141.559C368.486 140.041 367.881 138.586 366.808 137.513C365.734 136.44 364.28 135.836 362.763 135.834H186.204C184.687 135.836 183.233 136.44 182.16 137.513C181.086 138.586 180.482 140.041 180.478 141.559Z" fill="#3F3D56"/>
<path d="M184.62 143.043V259.345C184.621 260.157 184.944 260.935 185.518 261.51C186.092 262.084 186.869 262.407 187.68 262.408H361.293C362.105 262.407 362.882 262.084 363.456 261.51C364.029 260.935 364.352 260.157 364.354 259.345V143.043C364.354 142.23 364.031 141.451 363.458 140.875C362.884 140.3 362.106 139.975 361.293 139.974H187.68C186.868 139.975 186.09 140.3 185.516 140.875C184.942 141.451 184.62 142.23 184.62 143.043Z" fill="#F9A826"/>
<path d="M220.021 312.21C220.198 312.432 220.422 312.611 220.678 312.733C220.934 312.856 221.214 312.919 221.497 312.917H324.785C325.068 312.917 325.347 312.853 325.602 312.732C325.857 312.61 326.081 312.433 326.259 312.213C326.437 311.993 326.564 311.737 326.63 311.462C326.697 311.187 326.701 310.901 326.643 310.624L325.04 303.001C324.974 302.69 324.83 302.401 324.624 302.16C324.417 301.918 324.153 301.733 323.857 301.619C323.642 301.535 323.413 301.492 323.182 301.492H223.094C222.863 301.492 222.634 301.535 222.42 301.619C222.123 301.733 221.859 301.918 221.652 302.16C221.446 302.401 221.303 302.69 221.236 303.001L219.633 310.624C219.576 310.901 219.581 311.187 219.648 311.461C219.715 311.735 219.843 311.991 220.021 312.21Z" fill="#2F2E41"/>
<path d="M319.578 304.776H322.138C322.309 304.776 322.448 304.636 322.448 304.465V303.176C322.448 303.004 322.309 302.865 322.138 302.865H319.578C319.406 302.865 319.267 303.004 319.267 303.176V304.465C319.267 304.636 319.406 304.776 319.578 304.776Z" fill="#3F3D56"/>
<path d="M313.215 304.776H315.775C315.947 304.776 316.086 304.636 316.086 304.465V303.176C316.086 303.004 315.947 302.865 315.775 302.865H313.215C313.044 302.865 312.905 303.004 312.905 303.176V304.465C312.905 304.636 313.044 304.776 313.215 304.776Z" fill="#3F3D56"/>
<path d="M306.853 304.776H309.413C309.584 304.776 309.724 304.636 309.724 304.465V303.176C309.724 303.004 309.584 302.865 309.413 302.865H306.853C306.681 302.865 306.542 303.004 306.542 303.176V304.465C306.542 304.636 306.681 304.776 306.853 304.776Z" fill="#3F3D56"/>
<path d="M300.49 304.776H303.05C303.222 304.776 303.361 304.636 303.361 304.465V303.176C303.361 303.004 303.222 302.865 303.05 302.865H300.49C300.319 302.865 300.18 303.004 300.18 303.176V304.465C300.18 304.636 300.319 304.776 300.49 304.776Z" fill="#3F3D56"/>
<path d="M294.128 304.776H296.688C296.859 304.776 296.999 304.636 296.999 304.465V303.176C296.999 303.004 296.859 302.865 296.688 302.865H294.128C293.956 302.865 293.817 303.004 293.817 303.176V304.465C293.817 304.636 293.956 304.776 294.128 304.776Z" fill="#3F3D56"/>
<path d="M287.765 304.776H290.325C290.497 304.776 290.636 304.636 290.636 304.465V303.176C290.636 303.004 290.497 302.865 290.325 302.865H287.765C287.594 302.865 287.455 303.004 287.455 303.176V304.465C287.455 304.636 287.594 304.776 287.765 304.776Z" fill="#3F3D56"/>
<path d="M281.403 304.776H283.963C284.135 304.776 284.274 304.636 284.274 304.465V303.176C284.274 303.004 284.135 302.865 283.963 302.865H281.403C281.231 302.865 281.092 303.004 281.092 303.176V304.465C281.092 304.636 281.231 304.776 281.403 304.776Z" fill="#3F3D56"/>
<path d="M275.04 304.776H277.601C277.772 304.776 277.911 304.636 277.911 304.465V303.176C277.911 303.004 277.772 302.865 277.601 302.865H275.04C274.869 302.865 274.73 303.004 274.73 303.176V304.465C274.73 304.636 274.869 304.776 275.04 304.776Z" fill="#3F3D56"/>
<path d="M268.678 304.776H271.238C271.41 304.776 271.549 304.636 271.549 304.465V303.176C271.549 303.004 271.41 302.865 271.238 302.865H268.678C268.507 302.865 268.367 303.004 268.367 303.176V304.465C268.367 304.636 268.507 304.776 268.678 304.776Z" fill="#3F3D56"/>
<path d="M262.316 304.776H264.876C265.047 304.776 265.186 304.636 265.186 304.465V303.176C265.186 303.004 265.047 302.865 264.876 302.865H262.316C262.144 302.865 262.005 303.004 262.005 303.176V304.465C262.005 304.636 262.144 304.776 262.316 304.776Z" fill="#3F3D56"/>
<path d="M255.953 304.776H258.513C258.685 304.776 258.824 304.636 258.824 304.465V303.176C258.824 303.004 258.685 302.865 258.513 302.865H255.953C255.782 302.865 255.642 303.004 255.642 303.176V304.465C255.642 304.636 255.782 304.776 255.953 304.776Z" fill="#3F3D56"/>
<path d="M249.591 304.776H252.151C252.322 304.776 252.461 304.636 252.461 304.465V303.176C252.461 303.004 252.322 302.865 252.151 302.865H249.591C249.419 302.865 249.28 303.004 249.28 303.176V304.465C249.28 304.636 249.419 304.776 249.591 304.776Z" fill="#3F3D56"/>
<path d="M243.228 304.776H245.788C245.96 304.776 246.099 304.636 246.099 304.465V303.176C246.099 303.004 245.96 302.865 245.788 302.865H243.228C243.057 302.865 242.918 303.004 242.918 303.176V304.465C242.918 304.636 243.057 304.776 243.228 304.776Z" fill="#3F3D56"/>
<path d="M236.866 304.776H239.426C239.597 304.776 239.736 304.636 239.736 304.465V303.176C239.736 303.004 239.597 302.865 239.426 302.865H236.866C236.694 302.865 236.555 303.004 236.555 303.176V304.465C236.555 304.636 236.694 304.776 236.866 304.776Z" fill="#3F3D56"/>
<path d="M230.503 304.776H233.063C233.235 304.776 233.374 304.636 233.374 304.465V303.176C233.374 303.004 233.235 302.865 233.063 302.865H230.503C230.332 302.865 230.193 303.004 230.193 303.176V304.465C230.193 304.636 230.332 304.776 230.503 304.776Z" fill="#3F3D56"/>
<path d="M224.141 304.776H226.701C226.872 304.776 227.011 304.636 227.011 304.465V303.176C227.011 303.004 226.872 302.865 226.701 302.865H224.141C223.969 302.865 223.83 303.004 223.83 303.176V304.465C223.83 304.636 223.969 304.776 224.141 304.776Z" fill="#3F3D56"/>
<path d="M319.653 307.96H322.213C322.385 307.96 322.524 307.821 322.524 307.649V306.36C322.524 306.188 322.385 306.049 322.213 306.049H319.653C319.481 306.049 319.342 306.188 319.342 306.36V307.649C319.342 307.821 319.481 307.96 319.653 307.96Z" fill="#3F3D56"/>
<path d="M313.291 307.96H315.851C316.022 307.96 316.161 307.821 316.161 307.649V306.36C316.161 306.188 316.022 306.049 315.851 306.049H313.291C313.119 306.049 312.98 306.188 312.98 306.36V307.649C312.98 307.821 313.119 307.96 313.291 307.96Z" fill="#3F3D56"/>
<path d="M306.928 307.96H309.488C309.66 307.96 309.799 307.821 309.799 307.649V306.36C309.799 306.188 309.66 306.049 309.488 306.049H306.928C306.757 306.049 306.618 306.188 306.618 306.36V307.649C306.618 307.821 306.757 307.96 306.928 307.96Z" fill="#3F3D56"/>
<path d="M300.566 307.96H303.126C303.297 307.96 303.436 307.821 303.436 307.649V306.36C303.436 306.188 303.297 306.049 303.126 306.049H300.566C300.394 306.049 300.255 306.188 300.255 306.36V307.649C300.255 307.821 300.394 307.96 300.566 307.96Z" fill="#3F3D56"/>
<path d="M294.203 307.96H296.763C296.935 307.96 297.074 307.821 297.074 307.649V306.36C297.074 306.188 296.935 306.049 296.763 306.049H294.203C294.032 306.049 293.893 306.188 293.893 306.36V307.649C293.893 307.821 294.032 307.96 294.203 307.96Z" fill="#3F3D56"/>
<path d="M287.841 307.96H290.401C290.572 307.96 290.711 307.821 290.711 307.649V306.36C290.711 306.188 290.572 306.049 290.401 306.049H287.841C287.669 306.049 287.53 306.188 287.53 306.36V307.649C287.53 307.821 287.669 307.96 287.841 307.96Z" fill="#3F3D56"/>
<path d="M281.478 307.96H284.038C284.21 307.96 284.349 307.821 284.349 307.649V306.36C284.349 306.188 284.21 306.049 284.038 306.049H281.478C281.307 306.049 281.168 306.188 281.168 306.36V307.649C281.168 307.821 281.307 307.96 281.478 307.96Z" fill="#3F3D56"/>
<path d="M275.116 307.96H277.676C277.847 307.96 277.986 307.821 277.986 307.649V306.36C277.986 306.188 277.847 306.049 277.676 306.049H275.116C274.944 306.049 274.805 306.188 274.805 306.36V307.649C274.805 307.821 274.944 307.96 275.116 307.96Z" fill="#3F3D56"/>
<path d="M268.753 307.96H271.313C271.485 307.96 271.624 307.821 271.624 307.649V306.36C271.624 306.188 271.485 306.049 271.313 306.049H268.753C268.582 306.049 268.443 306.188 268.443 306.36V307.649C268.443 307.821 268.582 307.96 268.753 307.96Z" fill="#3F3D56"/>
<path d="M262.391 307.96H264.951C265.122 307.96 265.261 307.821 265.261 307.649V306.36C265.261 306.188 265.122 306.049 264.951 306.049H262.391C262.219 306.049 262.08 306.188 262.08 306.36V307.649C262.08 307.821 262.219 307.96 262.391 307.96Z" fill="#3F3D56"/>
<path d="M256.028 307.96H258.588C258.76 307.96 258.899 307.821 258.899 307.649V306.36C258.899 306.188 258.76 306.049 258.588 306.049H256.028C255.857 306.049 255.718 306.188 255.718 306.36V307.649C255.718 307.821 255.857 307.96 256.028 307.96Z" fill="#3F3D56"/>
<path d="M249.666 307.96H252.226C252.397 307.96 252.536 307.821 252.536 307.649V306.36C252.536 306.188 252.397 306.049 252.226 306.049H249.666C249.494 306.049 249.355 306.188 249.355 306.36V307.649C249.355 307.821 249.494 307.96 249.666 307.96Z" fill="#3F3D56"/>
<path d="M243.303 307.96H245.863C246.035 307.96 246.174 307.821 246.174 307.649V306.36C246.174 306.188 246.035 306.049 245.863 306.049H243.303C243.132 306.049 242.993 306.188 242.993 306.36V307.649C242.993 307.821 243.132 307.96 243.303 307.96Z" fill="#3F3D56"/>
<path d="M236.941 307.96H239.501C239.672 307.96 239.811 307.821 239.811 307.649V306.36C239.811 306.188 239.672 306.049 239.501 306.049H236.941C236.769 306.049 236.63 306.188 236.63 306.36V307.649C236.63 307.821 236.769 307.96 236.941 307.96Z" fill="#3F3D56"/>
<path d="M230.578 307.96H233.138C233.31 307.96 233.449 307.821 233.449 307.649V306.36C233.449 306.188 233.31 306.049 233.138 306.049H230.578C230.407 306.049 230.268 306.188 230.268 306.36V307.649C230.268 307.821 230.407 307.96 230.578 307.96Z" fill="#3F3D56"/>
<path d="M224.216 307.96H226.776C226.947 307.96 227.087 307.821 227.087 307.649V306.36C227.087 306.188 226.947 306.049 226.776 306.049H224.216C224.044 306.049 223.905 306.188 223.905 306.36V307.649C223.905 307.821 224.044 307.96 224.216 307.96Z" fill="#3F3D56"/>
<path d="M266.844 311.781H291.673C291.845 311.781 291.984 311.642 291.984 311.47V310.181C291.984 310.01 291.845 309.87 291.673 309.87H266.844C266.673 309.87 266.534 310.01 266.534 310.181V311.47C266.534 311.642 266.673 311.781 266.844 311.781Z" fill="#3F3D56"/>
<path d="M196.405 155.995H358.853C359.022 155.991 359.183 155.921 359.301 155.8C359.419 155.68 359.485 155.517 359.485 155.348C359.485 155.179 359.419 155.017 359.301 154.896C359.183 154.775 359.022 154.705 358.853 154.702H196.405C196.236 154.705 196.075 154.775 195.957 154.896C195.839 155.017 195.773 155.179 195.773 155.348C195.773 155.517 195.839 155.68 195.957 155.8C196.075 155.921 196.236 155.991 196.405 155.995Z" fill="#3F3D56"/>
<path d="M347.795 151.4C349.886 151.4 351.581 149.666 351.581 147.526C351.581 145.386 349.886 143.652 347.795 143.652C345.704 143.652 344.009 145.386 344.009 147.526C344.009 149.666 345.704 151.4 347.795 151.4Z" fill="#3F3D56"/>
<path d="M334.717 151.4C336.808 151.4 338.503 149.666 338.503 147.526C338.503 145.386 336.808 143.652 334.717 143.652C332.626 143.652 330.931 145.386 330.931 147.526C330.931 149.666 332.626 151.4 334.717 151.4Z" fill="#3F3D56"/>
<path d="M321.638 151.4C323.729 151.4 325.424 149.666 325.424 147.526C325.424 145.386 323.729 143.652 321.638 143.652C319.547 143.652 317.852 145.386 317.852 147.526C317.852 149.666 319.547 151.4 321.638 151.4Z" fill="#3F3D56"/>
<path d="M203.587 145.317C203.586 145.408 203.604 145.499 203.638 145.584C203.673 145.669 203.724 145.746 203.788 145.811C203.853 145.876 203.929 145.928 204.014 145.963C204.098 145.998 204.189 146.017 204.28 146.017H213.569C213.753 146.013 213.928 145.937 214.056 145.805C214.184 145.674 214.256 145.497 214.256 145.314C214.256 145.13 214.184 144.953 214.056 144.822C213.928 144.69 213.753 144.614 213.569 144.61H204.28C204.095 144.612 203.918 144.688 203.788 144.82C203.658 144.953 203.585 145.131 203.587 145.317Z" fill="#3F3D56"/>
<path d="M203.587 147.96C203.586 148.051 203.604 148.142 203.638 148.227C203.673 148.312 203.724 148.389 203.788 148.454C203.853 148.519 203.929 148.571 204.014 148.606C204.098 148.642 204.189 148.66 204.28 148.66H213.569C213.753 148.656 213.928 148.58 214.056 148.449C214.185 148.317 214.257 148.141 214.257 147.957C214.257 147.773 214.185 147.596 214.056 147.464C213.928 147.333 213.753 147.257 213.569 147.253H204.28C204.095 147.255 203.918 147.331 203.788 147.463C203.658 147.596 203.585 147.774 203.587 147.96Z" fill="#3F3D56"/>
<path d="M203.587 150.596C203.585 150.782 203.658 150.961 203.788 151.093C203.918 151.225 204.095 151.301 204.28 151.303H213.569C213.753 151.299 213.928 151.223 214.056 151.092C214.184 150.96 214.256 150.783 214.256 150.6C214.256 150.416 214.184 150.239 214.056 150.108C213.928 149.976 213.753 149.9 213.569 149.896H204.28C204.189 149.896 204.098 149.915 204.014 149.95C203.929 149.986 203.853 150.037 203.788 150.102C203.724 150.167 203.673 150.245 203.638 150.329C203.604 150.414 203.586 150.505 203.587 150.596Z" fill="#3F3D56"/>
<path d="M206.457 171.022H203.12C202.108 171.022 201.287 171.843 201.287 172.856C201.287 173.869 202.108 174.691 203.12 174.691H206.457C207.469 174.691 208.29 173.869 208.29 172.856C208.29 171.843 207.469 171.022 206.457 171.022Z" fill="#E6E6E6"/>
<path d="M244.632 171.022H241.294C240.282 171.022 239.462 171.843 239.462 172.856C239.462 173.869 240.282 174.691 241.294 174.691H244.632C245.644 174.691 246.465 173.869 246.465 172.856C246.465 171.843 245.644 171.022 244.632 171.022Z" fill="#E6E6E6"/>
<path d="M255.448 171.022H252.111C251.099 171.022 250.278 171.843 250.278 172.856C250.278 173.869 251.099 174.691 252.111 174.691H255.448C256.46 174.691 257.281 173.869 257.281 172.856C257.281 171.843 256.46 171.022 255.448 171.022Z" fill="#E6E6E6"/>
<path d="M234.249 170.717H213.503C212.491 170.717 211.671 171.538 211.671 172.551C211.671 173.564 212.491 174.385 213.503 174.385H234.249C235.261 174.385 236.081 173.564 236.081 172.551C236.081 171.538 235.261 170.717 234.249 170.717Z" fill="#E6E6E6"/>
<path d="M285.148 170.717H264.403C263.391 170.717 262.571 171.538 262.571 172.551C262.571 173.564 263.391 174.385 264.403 174.385H285.148C286.16 174.385 286.981 173.564 286.981 172.551C286.981 171.538 286.16 170.717 285.148 170.717Z" fill="#E6E6E6"/>
<path d="M216.637 179.301H213.3C212.288 179.301 211.467 180.123 211.467 181.135C211.467 182.148 212.288 182.97 213.3 182.97H216.637C217.649 182.97 218.47 182.148 218.47 181.135C218.47 180.123 217.649 179.301 216.637 179.301Z" fill="#E6E6E6"/>
<path d="M254.812 179.301H251.474C250.462 179.301 249.642 180.123 249.642 181.135C249.642 182.148 250.462 182.97 251.474 182.97H254.812C255.824 182.97 256.645 182.148 256.645 181.135C256.645 180.123 255.824 179.301 254.812 179.301Z" fill="#E6E6E6"/>
<path d="M265.628 179.301H262.291C261.279 179.301 260.458 180.123 260.458 181.135C260.458 182.148 261.279 182.97 262.291 182.97H265.628C266.64 182.97 267.461 182.148 267.461 181.135C267.461 180.123 266.64 179.301 265.628 179.301Z" fill="#E6E6E6"/>
<path d="M244.429 178.996H223.683C222.671 178.996 221.851 179.817 221.851 180.83C221.851 181.843 222.671 182.664 223.683 182.664H244.429C245.441 182.664 246.261 181.843 246.261 180.83C246.261 179.817 245.441 178.996 244.429 178.996Z" fill="#E6E6E6"/>
<path d="M295.328 178.996H274.583C273.571 178.996 272.751 179.817 272.751 180.83C272.751 181.843 273.571 182.664 274.583 182.664H295.328C296.34 182.664 297.161 181.843 297.161 180.83C297.161 179.817 296.34 178.996 295.328 178.996Z" fill="#E6E6E6"/>
<path d="M226.817 187.58H223.479C222.467 187.58 221.647 188.402 221.647 189.415C221.647 190.427 222.467 191.249 223.479 191.249H226.817C227.829 191.249 228.65 190.427 228.65 189.415C228.65 188.402 227.829 187.58 226.817 187.58Z" fill="#E6E6E6"/>
<path d="M264.992 187.58H261.654C260.642 187.58 259.822 188.402 259.822 189.415C259.822 190.427 260.642 191.249 261.654 191.249H264.992C266.004 191.249 266.825 190.427 266.825 189.415C266.825 188.402 266.004 187.58 264.992 187.58Z" fill="#E6E6E6"/>
<path d="M275.808 187.58H272.471C271.459 187.58 270.638 188.402 270.638 189.415C270.638 190.427 271.459 191.249 272.471 191.249H275.808C276.82 191.249 277.641 190.427 277.641 189.415C277.641 188.402 276.82 187.58 275.808 187.58Z" fill="#E6E6E6"/>
<path d="M254.609 187.275H233.863C232.851 187.275 232.031 188.096 232.031 189.109C232.031 190.122 232.851 190.943 233.863 190.943H254.609C255.621 190.943 256.441 190.122 256.441 189.109C256.441 188.096 255.621 187.275 254.609 187.275Z" fill="#E6E6E6"/>
<path d="M305.508 187.275H284.763C283.751 187.275 282.931 188.096 282.931 189.109C282.931 190.122 283.751 190.943 284.763 190.943H305.508C306.52 190.943 307.341 190.122 307.341 189.109C307.341 188.096 306.52 187.275 305.508 187.275Z" fill="#E6E6E6"/>
<path d="M236.997 195.859H233.659C232.647 195.859 231.827 196.681 231.827 197.694C231.827 198.707 232.647 199.528 233.659 199.528H236.997C238.009 199.528 238.83 198.707 238.83 197.694C238.83 196.681 238.009 195.859 236.997 195.859Z" fill="#E6E6E6"/>
<path d="M275.172 195.859H271.834C270.822 195.859 270.002 196.681 270.002 197.694C270.002 198.707 270.822 199.528 271.834 199.528H275.172C276.184 199.528 277.005 198.707 277.005 197.694C277.005 196.681 276.184 195.859 275.172 195.859Z" fill="#E6E6E6"/>
<path d="M285.988 195.859H282.651C281.639 195.859 280.818 196.681 280.818 197.694C280.818 198.707 281.639 199.528 282.651 199.528H285.988C287 199.528 287.821 198.707 287.821 197.694C287.821 196.681 287 195.859 285.988 195.859Z" fill="#E6E6E6"/>
<path d="M264.788 195.554H244.043C243.031 195.554 242.211 196.375 242.211 197.388C242.211 198.401 243.031 199.222 244.043 199.222H264.788C265.8 199.222 266.621 198.401 266.621 197.388C266.621 196.375 265.8 195.554 264.788 195.554Z" fill="#E6E6E6"/>
<path d="M244.632 228.781H241.294C240.282 228.781 239.462 229.602 239.462 230.615C239.462 231.628 240.282 232.449 241.294 232.449H244.632C245.644 232.449 246.465 231.628 246.465 230.615C246.465 229.602 245.644 228.781 244.632 228.781Z" fill="#E6E6E6"/>
<path d="M255.448 228.781H252.111C251.099 228.781 250.278 229.602 250.278 230.615C250.278 231.628 251.099 232.449 252.111 232.449H255.448C256.46 232.449 257.281 231.628 257.281 230.615C257.281 229.602 256.46 228.781 255.448 228.781Z" fill="#E6E6E6"/>
<path d="M285.148 229.086H264.403C263.391 229.086 262.571 229.908 262.571 230.921C262.571 231.933 263.391 232.755 264.403 232.755H285.148C286.16 232.755 286.981 231.933 286.981 230.921C286.981 229.908 286.16 229.086 285.148 229.086Z" fill="#E6E6E6"/>
<path d="M206.457 228.781H203.12C202.108 228.781 201.287 229.602 201.287 230.615C201.287 231.628 202.108 232.449 203.12 232.449H206.457C207.469 232.449 208.29 231.628 208.29 230.615C208.29 229.602 207.469 228.781 206.457 228.781Z" fill="#E6E6E6"/>
<path d="M234.249 229.086H213.503C212.491 229.086 211.671 229.908 211.671 230.921C211.671 231.933 212.491 232.755 213.503 232.755H234.249C235.261 232.755 236.081 231.933 236.081 230.921C236.081 229.908 235.261 229.086 234.249 229.086Z" fill="#E6E6E6"/>
<path d="M216.637 220.501H213.3C212.288 220.501 211.467 221.323 211.467 222.336C211.467 223.349 212.288 224.17 213.3 224.17H216.637C217.649 224.17 218.47 223.349 218.47 222.336C218.47 221.323 217.649 220.501 216.637 220.501Z" fill="#E6E6E6"/>
<path d="M254.812 220.501H251.474C250.462 220.501 249.642 221.323 249.642 222.336C249.642 223.349 250.462 224.17 251.474 224.17H254.812C255.824 224.17 256.645 223.349 256.645 222.336C256.645 221.323 255.824 220.501 254.812 220.501Z" fill="#E6E6E6"/>
<path d="M265.628 220.501H262.291C261.279 220.501 260.458 221.323 260.458 222.336C260.458 223.349 261.279 224.17 262.291 224.17H265.628C266.64 224.17 267.461 223.349 267.461 222.336C267.461 221.323 266.64 220.501 265.628 220.501Z" fill="#E6E6E6"/>
<path d="M244.429 220.807H223.683C222.671 220.807 221.851 221.629 221.851 222.641C221.851 223.654 222.671 224.476 223.683 224.476H244.429C245.441 224.476 246.261 223.654 246.261 222.641C246.261 221.629 245.441 220.807 244.429 220.807Z" fill="#E6E6E6"/>
<path d="M226.817 212.222H223.479C222.467 212.222 221.647 213.044 221.647 214.057C221.647 215.069 222.467 215.891 223.479 215.891H226.817C227.829 215.891 228.65 215.069 228.65 214.057C228.65 213.044 227.829 212.222 226.817 212.222Z" fill="#E6E6E6"/>
<path d="M264.992 212.222H261.654C260.642 212.222 259.822 213.044 259.822 214.057C259.822 215.069 260.642 215.891 261.654 215.891H264.992C266.004 215.891 266.825 215.069 266.825 214.057C266.825 213.044 266.004 212.222 264.992 212.222Z" fill="#E6E6E6"/>
<path d="M275.808 212.222H272.471C271.459 212.222 270.638 213.044 270.638 214.057C270.638 215.069 271.459 215.891 272.471 215.891H275.808C276.82 215.891 277.641 215.069 277.641 214.057C277.641 213.044 276.82 212.222 275.808 212.222Z" fill="#E6E6E6"/>
<path d="M254.609 212.528H233.863C232.851 212.528 232.031 213.349 232.031 214.362C232.031 215.375 232.851 216.197 233.863 216.197H254.609C255.621 216.197 256.441 215.375 256.441 214.362C256.441 213.349 255.621 212.528 254.609 212.528Z" fill="#E6E6E6"/>
<path d="M236.997 203.943H233.659C232.647 203.943 231.827 204.765 231.827 205.777C231.827 206.79 232.647 207.612 233.659 207.612H236.997C238.009 207.612 238.83 206.79 238.83 205.777C238.83 204.765 238.009 203.943 236.997 203.943Z" fill="#E6E6E6"/>
<path d="M275.172 203.943H271.834C270.822 203.943 270.002 204.765 270.002 205.777C270.002 206.79 270.822 207.612 271.834 207.612H275.172C276.184 207.612 277.005 206.79 277.005 205.777C277.005 204.765 276.184 203.943 275.172 203.943Z" fill="#E6E6E6"/>
<path d="M285.988 203.943H282.651C281.639 203.943 280.818 204.765 280.818 205.777C280.818 206.79 281.639 207.612 282.651 207.612H285.988C287 207.612 287.821 206.79 287.821 205.777C287.821 204.765 287 203.943 285.988 203.943Z" fill="#E6E6E6"/>
<path d="M264.788 204.249H244.043C243.031 204.249 242.211 205.07 242.211 206.083C242.211 207.096 243.031 207.917 244.043 207.917H264.788C265.8 207.917 266.621 207.096 266.621 206.083C266.621 205.07 265.8 204.249 264.788 204.249Z" fill="#E6E6E6"/>
<path d="M222.631 347.691C222.491 347.761 222.351 347.831 222.211 347.894C221.326 348.334 220.436 348.767 219.539 349.194C216.854 350.474 214.135 351.69 211.382 352.843C204.139 355.875 196.706 358.434 189.132 360.504C187.86 352.563 186.625 333.833 185.442 320.058C185.219 317.466 184.997 315.052 184.774 312.919C184.562 310.118 184.161 307.335 183.571 304.589C183.514 304.373 183.43 304.166 183.323 303.971C183.444 305.072 183.571 308.359 183.692 312.919C183.756 315.052 183.813 317.466 183.877 320.058C184.176 333.317 184.488 351.359 184.799 361.631C183.915 361.848 183.024 362.064 182.134 362.268C181.574 362.402 181.007 362.529 180.441 362.65C179.754 362.803 179.067 362.956 178.38 363.096C177.661 363.249 176.942 363.395 176.223 363.535C164.474 365.846 152.528 367.006 140.555 367C139.759 367 138.97 366.994 138.175 366.987C137.933 366.987 137.692 366.981 137.443 366.974C136.744 366.962 136.018 366.949 135.28 366.93C121.131 366.538 107.074 364.51 93.3897 360.886L93.9432 320.058L94.0386 312.918L94.0768 310.212C93.7616 311.083 93.5731 311.994 93.5169 312.918C93.2942 314.657 93.0652 317.122 92.8361 320.058C91.9645 331.368 91.0674 349.614 90.1384 359.995C79.1377 356.861 71.0956 354.002 61.0428 348.971C60.6547 348.78 60.2602 348.582 59.8721 348.385C59.9421 347.894 60.0185 347.404 60.0885 346.901C61.2273 338.978 59.8849 328.668 61.1446 320.058C62.1054 313.415 63.0979 307.034 64.0968 301.621C65.3057 295.106 66.5336 289.985 67.7489 287.495C69.1486 284.623 70.5484 281.796 71.9036 279.089C72.489 277.923 73.0637 276.779 73.6278 275.656C73.9332 275.051 74.2386 274.453 74.5376 273.867C75.8992 271.198 77.1844 268.734 78.3615 266.549C79.1886 265.015 79.9521 263.626 80.652 262.41C81.4728 260.977 82.1981 259.792 82.7962 258.894C87.2136 252.192 93.7865 247.201 101.425 244.75L101.616 244.699L101.801 244.775L102.011 244.871L114.138 240.432L119.552 227.383L147.363 225.67L151.854 229.09L154.151 230.841L156.601 232.707L161.105 236.14L162.384 236.534L164.287 237.12L177.298 241.12L177.432 241.062L177.622 241.113C184.574 243.341 190.659 247.682 195.03 253.532C195.463 254.092 195.864 254.672 196.252 255.258C197.308 256.825 198.733 259.302 200.413 262.41C201.106 263.69 201.838 265.078 202.608 266.549C203.072 267.435 207.081 279.955 210.981 292.743C214.627 304.716 218.177 316.924 218.641 320.058C218.724 320.637 218.813 321.223 218.896 321.803C219.424 325.426 219.946 329.075 220.448 332.635C221.193 337.915 221.918 343.01 222.612 347.563C222.618 347.608 222.624 347.646 222.631 347.691Z" fill="#3F3D56"/>
<path opacity="0.2" d="M193.158 301.591L187.752 280.708L182.979 298.728L193.158 301.591Z" fill="black"/>
<path d="M10.0713 301.349C10.3517 302.166 10.8834 302.873 11.5902 303.369C12.297 303.864 13.1425 304.123 14.0053 304.107L30.8607 303.673C31.7298 303.656 32.5701 303.358 33.256 302.824C33.9419 302.289 34.4366 301.547 34.666 300.707L37.0512 275.178C37.8975 275.562 38.8187 275.751 39.7476 275.732C41.3774 275.691 42.9241 275.004 44.0476 273.822C45.1711 272.639 45.7793 271.058 45.7384 269.427C45.6975 267.796 45.0108 266.248 43.8295 265.123C42.6481 263.998 41.0689 263.39 39.4391 263.431C39.0678 263.429 38.6975 263.468 38.3344 263.546C37.9396 263.118 37.4597 262.778 36.9256 262.547C36.3915 262.317 35.815 262.2 35.2333 262.206L9.3059 262.876C9.09082 262.884 8.87684 262.911 8.66635 262.956C8.09776 263.062 7.55848 263.289 7.0848 263.621C6.61111 263.953 6.21401 264.383 5.92024 264.882C5.62647 265.38 5.44283 265.936 5.3817 266.512C5.32056 267.088 5.38334 267.67 5.56581 268.219L10.0713 301.349ZM37.5404 273.444L39.2376 267.361C39.4307 266.658 39.4352 265.917 39.2506 265.212C39.3329 265.211 39.4056 265.172 39.4879 265.172C40.6517 265.148 41.7775 265.587 42.6186 266.392C43.4596 267.198 43.9472 268.304 43.9745 269.469C44.0017 270.634 43.5664 271.762 42.764 272.606C41.9615 273.45 40.8574 273.941 39.6938 273.972C38.9415 273.995 38.1969 273.813 37.5404 273.444Z" fill="#2F2E41"/>
<path d="M8.66638 262.956C9.21876 266.117 15.4291 268.34 22.8966 267.953C29.7634 267.637 35.3782 265.223 36.4068 262.363C36.0261 262.25 35.6303 262.197 35.2334 262.206L9.30593 262.876C9.09085 262.884 8.87687 262.911 8.66638 262.956Z" fill="#3F3D56"/>
<path d="M24.2652 287.32C24.2993 287.312 24.3318 287.298 24.3612 287.278L28.0216 284.88C28.0659 284.851 28.1023 284.812 28.1274 284.765C28.1526 284.719 28.1658 284.667 28.1658 284.614C28.1658 284.561 28.1527 284.509 28.1275 284.462C28.1024 284.416 28.0661 284.376 28.0218 284.347L24.2172 281.853C24.1823 281.83 24.1432 281.814 24.1021 281.806C24.0609 281.798 24.0187 281.798 23.9777 281.807C23.9367 281.815 23.8977 281.832 23.8631 281.855C23.8284 281.879 23.7988 281.909 23.7759 281.944C23.7529 281.979 23.7371 282.018 23.7293 282.06C23.7216 282.101 23.722 282.143 23.7306 282.184C23.7392 282.225 23.7559 282.264 23.7795 282.299C23.8032 282.333 23.8335 282.363 23.8686 282.385L27.2667 284.613L24.013 286.745C23.95 286.787 23.9036 286.849 23.8822 286.921C23.8607 286.993 23.8655 287.071 23.8958 287.14C23.9261 287.209 23.9798 287.265 24.0474 287.298C24.115 287.331 24.1922 287.339 24.2652 287.32H24.2652Z" fill="#F9A826"/>
<path d="M18.4838 287.587C18.5452 287.572 18.6006 287.538 18.6428 287.491C18.6851 287.444 18.7122 287.385 18.7209 287.322C18.7295 287.259 18.7192 287.195 18.6912 287.138C18.6633 287.081 18.619 287.034 18.564 287.002L15.1899 285.066L18.4511 282.642C18.4846 282.617 18.5129 282.585 18.5343 282.55C18.5557 282.514 18.5699 282.474 18.576 282.433C18.5821 282.391 18.58 282.349 18.5698 282.309C18.5596 282.268 18.5415 282.23 18.5166 282.196C18.4917 282.163 18.4605 282.135 18.4247 282.113C18.3888 282.092 18.3491 282.077 18.3078 282.071C18.2665 282.065 18.2244 282.067 18.184 282.078C18.1435 282.088 18.1054 282.106 18.0719 282.131L14.4207 284.845C14.3783 284.877 14.3443 284.918 14.322 284.966C14.2996 285.014 14.2896 285.067 14.2927 285.12C14.2958 285.173 14.312 285.224 14.3398 285.269C14.3676 285.314 14.4062 285.351 14.452 285.377L18.2474 287.555C18.319 287.596 18.4038 287.608 18.4838 287.587Z" fill="#F9A826"/>
<path d="M23.9011 289.422C23.9319 289.414 23.9613 289.402 23.9883 289.385C24.024 289.364 24.0551 289.335 24.0798 289.301C24.1045 289.268 24.1223 289.229 24.1322 289.189C24.1421 289.148 24.1439 289.106 24.1375 289.064C24.1311 289.023 24.1166 288.983 24.0948 288.948L18.9059 280.409C18.8618 280.337 18.7911 280.285 18.7093 280.266C18.6274 280.246 18.5412 280.26 18.4693 280.303C18.3974 280.347 18.3458 280.418 18.3257 280.5C18.3057 280.581 18.3189 280.668 18.3623 280.74L23.5512 289.279C23.5866 289.337 23.6397 289.383 23.7027 289.408C23.7656 289.434 23.8352 289.439 23.9011 289.422Z" fill="#F9A826"/>
<path d="M499.549 348.383C499.161 348.581 498.767 348.778 498.379 348.969C488.326 354 480.284 356.86 469.283 359.993C468.354 349.613 467.457 331.367 466.585 320.056C466.356 317.12 466.127 314.656 465.905 312.917C465.848 311.993 465.66 311.081 465.345 310.211L465.383 312.917L465.478 320.056L466.032 360.885C452.348 364.509 438.291 366.537 424.141 366.929C423.403 366.948 422.678 366.96 421.978 366.973C421.73 366.98 421.488 366.986 421.246 366.986C420.451 366.992 419.662 366.999 418.867 366.999C403.956 367.01 389.099 365.207 374.622 361.63C374.934 351.358 375.246 333.316 375.545 320.056C375.608 317.464 375.666 315.051 375.729 312.917C375.85 308.357 375.977 305.071 376.098 303.969C375.991 304.165 375.908 304.372 375.85 304.587C375.261 307.333 374.859 310.116 374.648 312.917C374.425 315.051 374.202 317.464 373.979 320.056C372.796 333.831 371.562 352.561 370.289 360.503C362.715 358.433 355.283 355.874 348.04 352.841C344.222 351.249 340.473 349.532 336.791 347.689C337.491 343.104 338.222 337.965 338.973 332.634C339.559 328.501 340.163 324.253 340.78 320.056C341.734 313.573 374.158 243.564 381.799 241.112L381.99 241.061L382.123 241.118L395.135 237.119L397.037 236.533L398.316 236.138L402.821 232.706L405.27 230.84L407.567 229.088L412.059 225.668L439.869 227.382L445.284 240.431L457.411 244.87L457.621 244.774L457.805 244.698L457.996 244.749C465.635 247.2 472.208 252.19 476.625 258.893C477.223 259.791 477.949 260.976 478.77 262.408C479.469 263.625 480.233 265.013 481.06 266.548C482.237 268.732 483.522 271.197 484.884 273.865C485.183 274.451 485.488 275.05 485.794 275.655C486.36 276.776 486.935 277.92 487.518 279.088C488.873 281.794 490.273 284.622 491.673 287.494C492.888 289.984 494.116 295.104 495.325 301.619C496.324 307.033 497.316 313.414 498.277 320.056C499.537 328.666 498.194 338.977 499.333 346.9C499.403 347.403 499.479 347.893 499.549 348.383Z" fill="#3F3D56"/>
<path d="M417.986 220.984C435.849 220.984 450.33 206.489 450.33 188.609C450.33 170.729 435.849 156.234 417.986 156.234C400.122 156.234 385.641 170.729 385.641 188.609C385.641 206.489 400.122 220.984 417.986 220.984Z" fill="#FFB6B6"/>
<path opacity="0.2" d="M366.262 301.591L371.668 280.708L376.442 298.728L366.262 301.591Z" fill="black"/>
<path d="M510.124 287.984C508.19 314.656 510.194 326.399 499.518 348.39C489.804 353.149 479.686 357.032 469.283 359.993C468.201 360.299 467.118 360.596 466.032 360.885C452.348 364.509 438.291 366.537 424.141 366.929C423.403 366.948 422.678 366.96 421.978 366.973C421.73 366.98 421.488 366.986 421.246 366.986C420.451 366.992 419.662 366.999 418.867 366.999C403.956 367.01 389.099 365.207 374.622 361.63C373.171 361.273 371.727 360.898 370.289 360.503C362.715 358.433 355.283 355.874 348.04 352.841C344.222 351.249 340.473 349.532 336.791 347.689C335.957 347.269 335.124 346.849 334.303 346.416C330.085 338.99 327.686 329.959 327.635 319.107C330.556 300.409 503.672 271.859 510.124 287.984Z" fill="#2F2E41"/>
<path opacity="0.2" d="M510.119 292.552C510.218 290.901 510.328 289.195 510.457 287.419C504.005 271.294 330.889 299.844 327.968 318.542C327.976 320.256 328.05 321.92 328.173 323.544C335.245 305.089 499.708 277.954 510.119 292.552Z" fill="black"/>
<path d="M323.33 289.242L337.54 282.131L325.698 250.128L322.578 233.989C322.172 231.893 321.224 229.939 319.828 228.324C318.432 226.709 316.637 225.489 314.622 224.786C312.607 224.082 310.444 223.921 308.347 224.317C306.25 224.713 304.294 225.653 302.674 227.043C300.274 229.103 298.766 232.015 298.47 235.166C298.175 238.317 299.113 241.46 301.088 243.931L312.673 258.425L323.33 289.242Z" fill="#FFB6B6"/>
<path d="M337.54 276.204L318.593 285.686L332.972 330.781C334.004 334.02 335.855 336.936 338.345 339.247C340.835 341.559 343.879 343.187 347.183 343.975C351.256 344.945 355.533 344.592 359.392 342.967C363.252 341.341 366.494 338.527 368.648 334.933L406.775 269.52C409.477 265.012 410.311 259.626 409.099 254.511C407.887 249.397 404.725 244.959 400.288 242.147C397.902 240.634 395.224 239.641 392.43 239.233C389.635 238.824 386.785 239.01 384.067 239.777C381.348 240.543 378.821 241.875 376.651 243.684C374.48 245.493 372.715 247.739 371.469 250.276L348.197 299.91L337.54 276.204Z" fill="#3F3D56"/>
<path d="M133.299 218.75C152.954 218.75 168.887 202.801 168.887 183.128C168.887 163.454 152.954 147.505 133.299 147.505C113.644 147.505 97.7102 163.454 97.7102 183.128C97.7102 202.801 113.644 218.75 133.299 218.75Z" fill="#A0616A"/>
<path d="M98.1376 158.58C101.031 154.676 105.19 151.901 108.372 148.228C110.117 146.213 111.566 143.93 113.529 142.126C117.175 138.774 122.273 137.4 127.221 137.229C132.643 137.09 138.022 138.23 142.922 140.558C147.822 142.886 152.106 146.335 155.427 150.628C158.013 149.11 160.599 147.592 163.185 146.075C164.206 148.766 165.228 151.458 166.25 154.15C167.088 153.42 168.158 153.011 169.269 152.996C170.379 152.98 171.46 153.359 172.318 154.064C173.177 154.77 173.758 155.757 173.959 156.851C174.16 157.945 173.968 159.074 173.416 160.039C174.032 158.136 176.851 157.732 178.406 158.989C179.961 160.247 180.377 162.485 180.123 164.469C179.805 166.646 178.843 168.678 177.362 170.304C175.881 171.93 173.947 173.075 171.811 173.593C168.436 174.345 164.508 173.555 161.807 175.715C159.642 177.447 158.988 180.601 156.778 182.275C154.055 184.339 150.206 183.385 146.821 183.841C140.899 184.638 136.21 190.701 136.921 196.64C136.386 194.766 135.822 192.838 134.606 191.316C133.39 189.794 131.342 188.764 129.477 189.324C126.393 190.249 125.889 194.455 126.636 197.589C128.618 205.9 136.129 219.334 136.129 219.334C126.376 223.184 114.758 219.543 107.233 212.237C99.709 204.93 95.7901 194.584 94.083 184.23C92.6354 175.451 92.8406 165.726 98.1376 158.58Z" fill="#2F2E41"/>
<path d="M458.52 206.456C465.29 190.918 461.455 176.62 453.201 169.035V169.028C449.956 161.749 445.642 156.132 440.705 154.814C438.319 153.279 436.003 151.477 433.432 150.56C432.235 150.111 430.959 149.91 429.682 149.968C428.405 150.026 427.153 150.342 426.001 150.897L424.69 150.547C423.577 147.7 422.273 147.643 420.822 149.515C415.236 146.91 410.203 145.745 405.724 145.745C391.116 145.745 382.475 158.125 380.185 173.091L392.394 176.346L396.638 169.576L394.678 176.957L401.416 178.747C411.673 192.114 399.399 222.951 383.843 240.107C387.546 239.082 391.234 238.216 394.908 237.509L408.256 217.919L399.985 235.751C404.279 235.121 409.758 235.726 415.745 236.942C417.762 234.306 418.824 230.79 417.781 227.657C419.487 230.961 420.663 234.514 421.267 238.184C433.903 241.273 451.139 242.859 460.428 244.03C467.933 241.578 467.954 213.882 458.52 206.456Z" fill="#2F2E41"/>
<path d="M462.925 153.603C467.884 164.718 457.877 169.499 448.71 169.364C440.427 169.242 433.387 163.417 432.964 155.136C432.761 151.159 434.144 147.264 436.81 144.308C439.476 141.353 443.205 139.578 447.178 139.375C455.452 138.951 459.546 146.031 462.925 153.603Z" fill="#2F2E41"/>
<path d="M232.855 334.544L224.686 320.905L251.848 300.279L263.142 288.344C264.609 286.793 266.457 285.655 268.501 285.044C270.546 284.432 272.714 284.368 274.791 284.858C276.868 285.348 278.78 286.375 280.336 287.837C281.891 289.298 283.037 291.143 283.657 293.186C284.577 296.214 284.285 299.481 282.844 302.298C281.403 305.115 278.924 307.261 275.932 308.284L258.383 314.281L232.855 334.544Z" fill="#A0616A"/>
<path d="M238.76 334.094L226.041 344.704L222.612 347.563L222.211 347.894C221.326 348.334 220.436 348.767 219.539 349.194C216.854 350.474 214.135 351.69 211.382 352.843C204.139 355.875 196.706 358.434 189.132 360.504C187.694 360.899 186.25 361.275 184.799 361.631C183.915 361.848 183.024 362.064 182.134 362.268C181.574 362.402 181.007 362.529 180.441 362.65C179.754 362.803 179.067 362.956 178.38 363.096C177.661 363.249 176.942 363.395 176.223 363.536C174.288 361.693 172.748 359.476 171.696 357.019C170.644 354.563 170.101 351.917 170.102 349.245C170.102 349.073 170.102 348.894 170.108 348.716L172.151 296.284L173.054 273.045C173.194 267.79 175.381 262.798 179.148 259.135C182.916 255.472 187.965 253.429 193.217 253.443C193.828 253.443 194.432 253.475 195.03 253.532C195.463 254.093 195.864 254.672 196.252 255.258C197.308 256.825 198.733 259.302 200.413 262.41C201.106 263.69 201.838 265.078 202.608 266.549C203.073 267.435 207.081 279.955 210.981 292.743L209.263 306.098L206.158 330.171L218.896 321.803L227.867 315.905L228.93 317.682L231.697 322.306L237.042 331.222L238.76 334.094Z" fill="#3F3D56"/>
<path d="M231.786 319.109C231.78 320.191 231.755 321.255 231.697 322.306C231.565 325.204 231.229 328.09 230.692 330.942C229.814 335.73 228.247 340.365 226.041 344.704C225.748 345.283 225.437 345.857 225.118 346.417C224.298 346.85 223.464 347.27 222.631 347.691C222.491 347.761 222.351 347.831 222.211 347.895C218.667 349.659 215.057 351.308 211.382 352.843C204.139 355.875 196.706 358.434 189.132 360.504C187.694 360.899 186.25 361.275 184.799 361.631C181.968 362.332 179.109 362.967 176.223 363.536C164.474 365.846 152.528 367.006 140.555 367C139.759 367 138.971 366.994 138.175 366.987C137.933 366.987 137.692 366.981 137.444 366.975C136.744 366.962 136.018 366.949 135.28 366.93C121.131 366.538 107.074 364.51 93.3897 360.886C92.3017 360.6 91.218 360.303 90.1385 359.995C79.736 357.033 69.6179 353.15 59.904 348.391C49.2277 326.401 51.2319 314.657 49.2977 287.986C53.2679 278.057 120.437 285.069 172.151 296.284C186.186 299.328 199.077 302.684 209.263 306.098C219.787 309.62 227.415 313.199 230.406 316.561C231.104 317.257 231.584 318.143 231.786 319.109Z" fill="#2F2E41"/>
<path opacity="0.2" d="M49.3015 292.552C49.2027 290.901 49.0923 289.195 48.9634 287.419C55.415 271.294 228.532 299.844 231.452 318.542C231.444 320.256 231.371 321.92 231.248 323.544C224.175 305.089 59.7122 277.954 49.3015 292.552Z" fill="black"/>
</g>
<defs>
<clipPath id="clip0_16_3">
<rect width="560" height="367" fill="white"/>
</clipPath>
</defs>
</svg>
